<?xml version="1.0" encoding="utf-8"?>
<!-- Generator: Adobe Illustrator 18.1.1, SVG Export Plug-In . SVG Version: 6.00 Build 0)  -->
<!DOCTYPE svg PUBLIC "-//W3C//DTD SVG 1.1//EN" "http://www.w3.org/Graphics/SVG/1.1/DTD/svg11.dtd">
<svg version="1.1" id="Layer_1" xmlns="http://www.w3.org/2000/svg" xmlns:xlink="http://www.w3.org/1999/xlink" x="0px" y="0px"
	 viewBox="0 0 151.5 176.4" enable-background="new 0 0 151.5 176.4" xml:space="preserve">
<g>
	<g>
		<path fill="#FFFFFF" d="M0,126.4v42.2c0,4.3,3.5,7.9,7.9,7.9h58.7v-57.9H7.9C3.5,118.5,0,122.1,0,126.4z M143.7,118.5H81.5v57.9
			h62.2c4.3,0,7.9-3.5,7.9-7.9v-42.2C151.5,122.1,148,118.5,143.7,118.5z"/>
		<path fill="#FFFFFF" d="M96.7,44.9H25.6c-4.3,0-7.9,3.5-7.9,7.9v58c0,4.3,3.5,7.9,7.9,7.9h27V44.9h10.8v73.7h33.4
			c4.3,0,7.9-3.5,7.9-7.9v-58C104.6,48.4,101.1,44.9,96.7,44.9z"/>
		<path fill="#FFFFFF" d="M114.7,26.6c-0.3,0.4-0.6,0.7-1,1.1C114.2,27.2,114.5,26.8,114.7,26.6z M111.3,22.3
			c-5.2,10.3-26.2,18.8-34.7,20c-5.7,0.8-12,0.6-15.4,0.4c0.1-0.2,0.1-0.4,0.2-0.6c8.3-1.2,31.6-5,32.7-8.1c1.3-3.8,9-29.1-7.2-30.9
			C73.4,1.5,61.6,28.8,58.1,37.7c-0.2,0-0.5-0.1-0.7-0.1c-0.2,0-0.4,0.1-0.6,0.1C51.9,24,40.1-4.3,28.4,0.6
			C13,7,14.3,33.9,29.1,37.1c9.1,2,18.4,4.4,24.2,6c-7-1-18.7-1.6-28.7-3.1C10.2,37.8,7.8,25.2,7.8,25.2c-1.3,6.5,1.1,9.6,1.1,9.6
			l-8.1-1.6c0,0,7.4,10.3,17,9.2c9.6-1.1,32.6,2.3,32.6,2.3h8.7l12.8,0.1c24.9-2.1,38-13.4,41.7-17.2c-2.4,2.1-6,3.4-6,3.4
			C110.9,26.6,111.3,22.3,111.3,22.3z M53.4,40.5c-3.9-2.1-10.7-5.5-18.1-7.9c-11.4-3.8-15.2-13.4-14.8-17.9
			c0.4-4.5,0.2-9.4,7.4-6.9c5.7,2,20.5,22.6,26.4,31.1C53.8,39.3,53.5,39.9,53.4,40.5z M59.7,38.3c6.3-7.8,19.2-33.8,24.9-31.9
			c6.7,2.2,5.2,25.3,4,26.4c-1.1,1.1-19.5,4.9-27.4,7C60.9,39.2,60.4,38.7,59.7,38.3z"/>
	</g>
</g>
</svg>
