<?xml version="1.0" encoding="utf-8"?>
<!-- Generator: Adobe Illustrator 18.1.1, SVG Export Plug-In . SVG Version: 6.00 Build 0)  -->
<!DOCTYPE svg PUBLIC "-//W3C//DTD SVG 1.1//EN" "http://www.w3.org/Graphics/SVG/1.1/DTD/svg11.dtd">
<svg version="1.1" id="Layer_1" xmlns="http://www.w3.org/2000/svg" xmlns:xlink="http://www.w3.org/1999/xlink" x="0px" y="0px"
	 viewBox="0 0 148.6 176.4" enable-background="new 0 0 148.6 176.4" xml:space="preserve">
<g>
	<g>
		<path fill="#FFFFFF" d="M41,175.3c0,0,0.2-1.2-5-1.9c-5.2-0.7-10.9-2.6-10.9-2.6s1.7-3.4-1.1-4.2c0,0,2.5-29.3,8.7-60
			c1.9-9.6,4.9-7.7,7.6-19.3C52,38.5,55,8.4,63,6.5c0,0,1.1-1.9-21.1-4.8C18.4-1.4,20.5,0.9,20.5,0.9c7.2,3.9,2.4,33.7,1.1,83.9
			c-0.3,11.9,4.7,11.1,4.1,20.9c-1.9,31.3-7,60.2-7,60.2c-2.8,0-2.1,3.8-2.1,3.8s-6.1,0.4-11.3-0.3c-5.2-0.7-5.3,0.5-5.3,0.5
			c0.8,2.4,17.7,5.4,20,5.8v0c0,0,0.1,0,0.1,0c0,0,0.1,0,0.1,0l0,0C22.5,176,39.6,177.4,41,175.3z"/>
		<path fill="#FFFFFF" d="M148.6,164.4c0,0-0.3-1.2-5.3,0.2c-5,1.4-11.1,1.8-11.1,1.8s0.2-3.8-2.6-3.4c0,0-9.2-28-15.4-58.6
			c-2-9.6,1.4-9-0.5-20.8c-8.3-49.5-17.3-78.4-10.7-83.2c0,0,0.2-2.2-21.3,3.8c-22.9,6.4-20.1,7.7-20.1,7.7
			c8.2,0.7,15.4,30.1,33.8,76.8c4.4,11.1,8.7,8.4,12,17.6c10.5,29.5,17.1,58.2,17.1,58.2c-2.6,1.1-0.5,4.3-0.5,4.3
			s-5.5,2.8-10.5,4.2c-5,1.4-4.7,2.6-4.7,2.6c1.7,1.9,18.5-1.9,20.7-2.4l0,0c0,0,0.1,0,0.1,0c0,0,0.1,0,0.1,0l0,0
			C131.8,172.2,148.1,166.8,148.6,164.4z"/>
	</g>
</g>
</svg>
