<?xml version="1.0" encoding="utf-8"?>
<!-- Generator: Adobe Illustrator 18.1.1, SVG Export Plug-In . SVG Version: 6.00 Build 0)  -->
<!DOCTYPE svg PUBLIC "-//W3C//DTD SVG 1.1//EN" "http://www.w3.org/Graphics/SVG/1.1/DTD/svg11.dtd">
<svg version="1.1" id="Layer_1" xmlns="http://www.w3.org/2000/svg" xmlns:xlink="http://www.w3.org/1999/xlink" x="0px" y="0px"
	 viewBox="0 0 177.3 176.4" enable-background="new 0 0 177.3 176.4" xml:space="preserve">
<g>
	<g>
		<path fill="#FFFFFF" d="M66.2,90l-2.3,2.3c-4.6,4-14.4,13.7-33.5,15.9c-7.8,0.3-15.4,3.3-21.2,9.1c-12.9,12.9-12.1,34.4,1.7,48.2
			c13.8,13.8,35.4,14.5,48.2,1.7c4.8-4.8,7.7-10.9,8.7-17.3c0.2-1.2,0.3-2.5,0.4-3.7c2.3-20.2,12.7-30.2,16.5-34.3l1.7-1.7L66.2,90z
			 M41.2,164l-0.5,0.1c-8.8,2.5-15.2-0.9-21.1-11.4c-0.1-0.1,6.7,4.4,15.4,3.1c9.5-1.3,21-8.4,21-8.4C49.5,161.6,41.4,164,41.2,164z
			"/>
	</g>
	<g>
		<path fill="#FFFFFF" d="M91.8,55.6c-2.6-11.7,0.4-24.1,9.1-32.9c14-14,37.4-13.3,52.1,1.5c14.8,14.8,15.4,38.2,1.5,52.1
			c-8.7,8.7-21.2,11.7-32.9,9.1c-0.6,2.5-1.6,4.9-3,7.1l6.3,6.3c14,1.4,28.2-3.1,38.6-13.5c18.9-18.9,18.3-50.4-1.5-70.1
			c-19.7-19.7-51.2-20.4-70.1-1.5C81.5,24.2,77.1,38.4,78.4,52.4l6.3,6.3C86.9,57.2,89.3,56.3,91.8,55.6z"/>
	</g>
	<path fill="#FFFFFF" d="M43.9,50l83.4,83.4c3.2,3.1,7.9,3.5,10.7,0.7c2.8-2.7,2.4-7.5-0.7-10.7l-31-31c1.2-0.7,2.5-1.6,3.5-2.7
		c6-6,4.7-17.1-0.2-22.1c-4.9-4.9-16.1-6.2-22.1-0.2c-1.1,1.1-2,2.3-2.7,3.5l-31-31c-3.2-3.2-7.9-3.5-10.7-0.7
		C40.5,42.1,40.8,46.8,43.9,50z"/>
</g>
</svg>
