<?xml version="1.0" encoding="utf-8"?>
<!-- Generator: Adobe Illustrator 18.1.1, SVG Export Plug-In . SVG Version: 6.00 Build 0)  -->
<!DOCTYPE svg PUBLIC "-//W3C//DTD SVG 1.1//EN" "http://www.w3.org/Graphics/SVG/1.1/DTD/svg11.dtd">
<svg version="1.1" id="Layer_1" xmlns="http://www.w3.org/2000/svg" xmlns:xlink="http://www.w3.org/1999/xlink" x="0px" y="0px"
	 viewBox="0 0 220.5 176.4" enable-background="new 0 0 220.5 176.4" xml:space="preserve">
<g>
	<g>
		<path fill="#FFFFFF" d="M0.2,96.2C0.1,94.4,0,92.5,0,90.7l0,0c0-31.9,24.4-59.1,56.8-62l0,0c1.8-0.2,3.7-0.2,5.5-0.2l0,0
			c31.9,0,59.1,24.4,62,56.8l0,0l-6.5,0.6l6.5-0.6c0.2,1.9,0.2,3.7,0.2,5.5l0,0c0,31.9-24.4,59.1-56.8,62l0,0
			c-1.9,0.2-3.7,0.2-5.5,0.2l0,0C30.3,153,3.1,128.6,0.2,96.2L0.2,96.2z M58,41.6c-25.7,2.2-45,23.8-45,49.1l0,0
			c0,1.4,0.1,2.9,0.2,4.4l0,0c2.2,25.7,23.8,45,49.1,45l0,0c1.5,0,2.9-0.1,4.4-0.2l0,0c25.6-2.2,45-23.8,45-49.1l0,0
			c0-1.5-0.1-2.9-0.2-4.4l0,0l0,0c-2.3-25.7-23.8-45-49.1-45l0,0C60.9,41.4,59.4,41.5,58,41.6L58,41.6z"/>
		<path fill="#FFFFFF" d="M83.9,114c-0.2-2-0.3-4.1-0.3-6.1l0,0c0-35.1,26.8-65,62.4-68.1l0,0c2-0.2,4.1-0.3,6.1-0.3l0,0
			c35.1,0,64.9,26.8,68.1,62.4l0,0l-6.4,0.6l6.5-0.6c0.2,2,0.3,4.1,0.3,6.1l0,0c0,35.1-26.8,64.9-62.4,68.1l0,0
			c-2,0.2-4.1,0.3-6.1,0.3l0,0C116.9,176.4,87,149.6,83.9,114L83.9,114z M147.2,52.8c-28.9,2.5-50.6,26.8-50.6,55.2l0,0
			c0,1.6,0.1,3.3,0.2,4.9l0,0c2.5,28.8,26.8,50.6,55.2,50.6l0,0c1.6,0,3.3-0.1,4.9-0.2l0,0c28.8-2.5,50.6-26.8,50.6-55.2l0,0
			c0-1.6-0.1-3.3-0.2-4.9l0,0l0,0c-2.5-28.9-26.8-50.6-55.2-50.6l0,0C150.5,52.5,148.9,52.6,147.2,52.8L147.2,52.8z"/>
		<path fill="#FFFFFF" d="M62.5,34.7L56.6,8.9L71.1,0L97,5.8l7.2,16.5L87,40.1C87,40.1,79,29.6,62.5,34.7z"/>
	</g>
</g>
</svg>
