<?xml version="1.0" encoding="utf-8"?>
<!-- Generator: Adobe Illustrator 18.1.1, SVG Export Plug-In . SVG Version: 6.00 Build 0)  -->
<!DOCTYPE svg PUBLIC "-//W3C//DTD SVG 1.1//EN" "http://www.w3.org/Graphics/SVG/1.1/DTD/svg11.dtd">
<svg version="1.1" id="Layer_1" xmlns="http://www.w3.org/2000/svg" xmlns:xlink="http://www.w3.org/1999/xlink" x="0px" y="0px"
	 viewBox="0 0 200 131.1" enable-background="new 0 0 200 131.1" xml:space="preserve">
<g id="Shape_327_32_">
	<g>
		<path fill-rule="evenodd" clip-rule="evenodd" fill="#4CBAEA" d="M191.3,0H8.7C3.9,0,0,4,0,9v113c0,5,3.9,9,8.7,9h182.6
			c4.8,0,8.7-4,8.7-9V9C200,4,196.1,0,191.3,0z"/>
	</g>
</g>
<g>
	<path fill="#FFFFFF" d="M59,62.1v-2.4l-1.1,2.4h-9.8l-1.2-2.5v2.5H28.6L26.5,57h-3.7l-2.3,5.1h-9.5V46.7L18,31h13.3l1.9,4.4v-4.4
		h16.2l3.6,7.5l3.5-7.5h51.3c0,0,2.7,0,4.5,1.2l0-1.2h12.9v1.7c0,0,2.3-1.7,5.8-1.7s22.8,0,22.8,0l2,4.5V31h14.6l2.7,4.5V31h14v31.1
		h-14.3l-3.4-5.4v5.4h-17.8l-2.5-5.6h-3.5l-2.3,5.6h-10.8c0,0-4-0.1-7-2.2c0,1.1,0,2.2,0,2.2h-21.5c0,0,0-6.2,0-7.3
		c0-1.1-0.8-1-0.8-1h-0.8v8.2H59z"/>
	<path fill="#FFFFFF" d="M48.3,68.9h28.2l4.1,4.6l4.2-4.6h21.7c0,0,2,0.1,4,1.1v-1.1c0,0,16.9,0,19.3,0c2.5,0,4.5,1.2,4.5,1.2v-1.2
		h24.8V70c0,0,1.8-1.1,4.1-1.1c2.4,0,16.2,0,16.2,0V70c0,0,2-1.1,4.2-1.1c2.2,0,12.7,0,12.7,0v29.3c0,0-1.7,1.9-5.1,1.9h-16.8v-0.9
		c0,0-1.6,0.9-4,0.9c-2.4,0-44.5,0-44.5,0s0-6.8,0-7.6c0-0.7-0.3-0.9-1-0.9h-0.6v8.5h-13.9v-8.4c0,0-1.5,0.8-4.1,0.8c-2.6,0-5,0-5,0
		v7.6H84.2l-3.9-4.8l-4.2,4.8H48.3V68.9z"/>
	<polygon fill="#0078A9" points="137.2,73.5 155,73.5 155,78.3 142.7,78.3 142.7,82.4 154.6,82.4 154.6,86.6 142.7,86.6 142.7,91 
		155,91 155,95.6 137.2,95.6 	"/>
	<path fill="#0078A9" d="M189.2,82.1c6.7,0.3,7.2,3.7,7.2,7.2c0,4.1-3.4,6.4-6.9,6.4h-11.4V91h8.9c1.5,0,3.7,0,3.7-2.1
		c0-1-0.4-1.6-2-1.8c-0.7-0.1-3.3-0.2-3.7-0.3c-6-0.2-7.4-3.2-7.4-6.8c0-4.1,2.9-6.4,6.5-6.4h11.4v4.7H187c-1.9,0-3.9-0.2-3.9,1.9
		c0,1.4,1,1.6,2.3,1.8C185.8,82,188.8,82.1,189.2,82.1z"/>
	<path fill="#0078A9" d="M168.8,82.1c6.7,0.3,7.2,3.7,7.2,7.2c0,4.1-3.4,6.4-6.9,6.4h-11.4V91h8.9c1.5,0,3.7,0,3.7-2.1
		c0-1-0.4-1.6-2-1.8c-0.7-0.1-3.3-0.2-3.7-0.3c-6-0.2-7.4-3.2-7.4-6.8c0-4.1,2.9-6.4,6.5-6.4H175v4.7h-8.3c-1.9,0-3.9-0.2-3.9,1.9
		c0,1.4,1,1.6,2.3,1.8C165.4,82,168.4,82.1,168.8,82.1z"/>
	<path fill="#0078A9" d="M104.5,73.6h-19l-6.2,6.8l-6-6.9H51.9v22.1h20.7l6.5-7.3l6.4,7.3h10.4v-7.5h7.3c2.8,0,7.9-0.1,7.9-7.8
		C111.1,74.8,107.2,73.6,104.5,73.6z M69.8,91H57.3v-4.4h12v-4.2h-12v-4.1l13.2,0l5.3,6L69.8,91z M90.5,93.5l-7.8-9.2l7.8-8.6V93.5z
		 M102.7,83.6H96v-5.3h6.8c2.3,0,3,1.5,3,2.5C105.7,82.3,104.9,83.6,102.7,83.6z"/>
	<path fill="#0078A9" d="M130.7,85.6c3-1.5,3.7-3.4,3.7-6.1c0-4.7-3.8-5.9-6.5-5.9h-14.1v22.1h5.4v-7.8h7.1c1.9,0,2.6,1.9,2.7,3.7
		l0.1,4h5.3l-0.2-4.5C134.3,87.6,133.3,85.9,130.7,85.6z M126,83.3h-6.7v-5h6.8c2.3,0,3,1.5,3,2.5C129,82.3,128.3,83.3,126,83.3z"/>
	<rect x="116" y="35.4" fill="#0078A9" width="5.4" height="22.1"/>
	<polygon fill="#0078A9" points="71.7,35.5 89.4,35.5 89.4,40.2 77.1,40.2 77.1,44.4 89,44.4 89,48.5 77.1,48.5 77.1,52.9 
		89.4,52.9 89.4,57.5 71.7,57.5 	"/>
	<path fill="#0078A9" d="M109.5,47.5c3-1.5,3.7-3.4,3.7-6.1c0-4.7-3.8-5.9-6.5-5.9H92.6v22.1H98v-7.8h7.1c1.9,0,2.6,1.9,2.7,3.7
		l0.1,4h5.3L113,53C113,49.5,112,47.8,109.5,47.5z M104.8,45.2H98v-5h6.8c2.3,0,3,1.5,3,2.5C107.8,44.2,107,45.2,104.8,45.2z"/>
	<path fill="#0078A9" d="M59.2,35.5l-6.6,14.8l-6.6-14.8h-8.5v21.3l-9.5-21.3h-7.2l-9.7,22.1h5.7l2.1-4.9h10.8l2.1,4.9h10.9V41.2
		l7.2,16.4H55l7.4-16.1v16.1h5.4V35.5H59.2z M21,47.8l3.2-7.7l3.4,7.7H21z"/>
	<path fill="#0078A9" d="M177.4,35.5v15.3l-9.1-15.3h-8v20.7L151,35.5h-7.2l-7.5,17.1c0,0-3.2,0-3.5-0.1c-1.3-0.3-3.3-1.2-3.4-5.1
		v-1.6c0-5.2,2.8-5.6,6.4-5.6h3.3v-4.8h-7.1c-2.5,0-7.8,1.9-8,10.9c-0.1,6.1,2.5,11.1,8.5,11.1h7.1l2.1-4.9h10.8l2.1,4.9h10.7V41.4
		l9.8,16.2h7.4V35.5H177.4z M144.1,47.9l3.2-7.7l3.4,7.7H144.1z"/>
	<polyline fill="#FFFFFF" points="11.1,46.7 3.6,62.1 11.1,62.1 	"/>
</g>
</svg>
