<?xml version="1.0" encoding="utf-8"?>
<!-- Generator: Adobe Illustrator 18.1.1, SVG Export Plug-In . SVG Version: 6.00 Build 0)  -->
<!DOCTYPE svg PUBLIC "-//W3C//DTD SVG 1.1//EN" "http://www.w3.org/Graphics/SVG/1.1/DTD/svg11.dtd">
<svg version="1.1" id="Layer_1" xmlns="http://www.w3.org/2000/svg" xmlns:xlink="http://www.w3.org/1999/xlink" x="0px" y="0px"
	 viewBox="0 0 200 131.2" enable-background="new 0 0 200 131.2" xml:space="preserve">
<g id="Shape_327_30_">
	<g>
		<path fill-rule="evenodd" clip-rule="evenodd" fill="#F2DCBB" d="M191.3,0H8.7C3.9,0,0,4.1,0,9v113.1c0,5,3.9,9,8.7,9h182.6
			c4.8,0,8.7-4.1,8.7-9V9C200,4.1,196.1,0,191.3,0z"/>
	</g>
</g>
<g id="Shape_327_28_">
	<g>
		<path fill-rule="evenodd" clip-rule="evenodd" fill="#F48221" d="M61,131.2h130.3c4.8,0,8.7-4.1,8.7-9v-44
			C160.3,100.8,113.2,119,61,131.2z"/>
	</g>
</g>
<g id="Shape_340_6_">
	<g>
		<path fill-rule="evenodd" clip-rule="evenodd" fill="#1F242A" d="M30.2,49.7h-8.1V74h8.1c4.9,0,12-4.3,12-12.1l0-0.1l0-0.1
			C42.3,54.1,35.1,49.7,30.2,49.7z M37.2,62.1c0,9.1-10.4,7.9-10.4,7.9V54c0,0,10.4-1.2,10.4,7.9V62.1z M44.4,74.1h5V49.7h-5V74.1z
			 M60.4,58.9c-3.1-1.3-3.1-1.9-3.1-2.9c0-1,1.3-2.5,3.5-2.5c2.2,0,3.8,1.8,3.8,1.8l2.7-3.2c0,0-3.3-2.9-7-2.9
			c-4.2,0-7.9,2.4-7.9,7.3c0,5.5,5.8,6.2,7.9,7c2.1,0.8,2.9,2,2.9,3.2c0,0.8-0.2,3.4-3.6,3.4c-3.4,0-5.4-3.2-5.4-3.2l-3.1,3
			c0,0,2.8,4.6,8.9,4.6c3.9,0,8.2-2.8,8.2-8.2S63.5,60.2,60.4,58.9z M74.3,61.9c0-4.6,3.8-8.3,8.5-8.3c2.4,0,4.5,1.1,6,2.7v-5.8
			c-1.8-0.9-3.9-1.5-6-1.5c-7.2,0-13.1,5.7-13.1,12.8c0,7.1,5.9,12.8,13.1,12.8c2.2,0,4.2-0.5,6-1.4l0-5.7c-1.5,1.5-3.7,2.7-6,2.7
			C78.1,70.2,74.3,66.5,74.3,61.9z M128,65.7l-6.8-16h-5.3l10.5,25h3.1l10.5-25h-5.3L128,65.7z M169.2,63.9c0,0,5.3-1.2,5.3-7
			c0-5.8-5.1-7.2-7.7-7.2h-8.1v24.4h4.8v-9.7h0.5l6.7,9.7h6L169.2,63.9z M166.2,60.9h-2.7v-7.1h2.7c2.1,0,3.4,1.8,3.4,3.4v0.3
			C169.5,59.1,168.2,60.9,166.2,60.9z M141.7,74.1h13.8v-4.3h-8.8v-6.2h8.4v-4.3h-8.4V54h8.8v-4.3h-13.8V74.1z"/>
	</g>
</g>
<g id="Shape_340_4_">
	<g>
		<ellipse fill-rule="evenodd" clip-rule="evenodd" fill="#F48221" cx="103.8" cy="62" rx="12.9" ry="12.6"/>
	</g>
</g>
</svg>
