<?xml version="1.0" encoding="utf-8"?>
<!-- Generator: Adobe Illustrator 18.1.1, SVG Export Plug-In . SVG Version: 6.00 Build 0)  -->
<!DOCTYPE svg PUBLIC "-//W3C//DTD SVG 1.1//EN" "http://www.w3.org/Graphics/SVG/1.1/DTD/svg11.dtd">
<svg version="1.1" id="Layer_1" xmlns="http://www.w3.org/2000/svg" xmlns:xlink="http://www.w3.org/1999/xlink" x="0px" y="0px"
	 viewBox="0 0 200 131.3" enable-background="new 0 0 200 131.3" xml:space="preserve">
<g id="Shape_327_28_">
	<path fill-rule="evenodd" clip-rule="evenodd" fill="#5870BE" d="M191.3,0H8.7C3.9,0,0,4.1,0,9.1v113.2c0,5,3.9,9.1,8.7,9.1h182.6
		c4.8,0,8.7-4.1,8.7-9.1V9.1C200,4.1,196.1,0,191.3,0z"/>
</g>
<g id="Shape_329_10_">
	<path fill-rule="evenodd" clip-rule="evenodd" fill="#FFAF38" d="M134.4,18.7c-25.9,0-46.9,21-46.9,46.9c0,25.9,21,46.9,46.9,46.9
		c25.9,0,46.9-21,46.9-46.9C181.2,39.7,160.3,18.7,134.4,18.7z"/>
</g>
<g id="Shape_329_8_">
	<path fill-rule="evenodd" clip-rule="evenodd" fill="#E63737" d="M93.8,96.9v-3.2h6.2c0.8-1,1.5-2,2.2-3.1H90.7v-3.2H104
		c0.5-1,1-2,1.5-3.1H87.5v-3.2h19.2c1.7-4.9,2.7-10.2,2.7-15.7c0-4.3-0.6-8.5-1.7-12.5H87.5V50h19.2c-0.4-1.1-0.8-2.1-1.2-3.1H90.7
		v-3.2H104c-0.6-1.1-1.2-2.1-1.8-3.1h-8.4v-3.2h6.2c-8.5-11.4-22.2-18.8-37.5-18.8c-25.9,0-46.9,21-46.9,46.9
		c0,25.9,21,46.9,46.9,46.9c13.8,0,26.3-6,34.9-15.6H93.8z"/>
</g>
<g>
	<path fill="#FFFFFF" d="M13.8,51.8h8.9l1.7,13.5l5.2-13.5h8.9l-2.9,22.2h-5.5L32.3,57l-6.5,16.9h-5L18.7,57l-2.2,16.9H11L13.8,51.8
		z"/>
	<path fill="#FFFFFF" d="M44.2,63.1l-5.7-0.6c0.4-1,0.8-1.8,1.3-2.4c0.5-0.6,1.2-1.1,2-1.5c0.6-0.3,1.4-0.6,2.4-0.7
		c1-0.2,2.1-0.3,3.2-0.3c1.8,0,3.3,0.1,4.4,0.3c1.1,0.2,1.9,0.6,2.6,1.3c0.5,0.5,0.8,1.1,1,1.9c0.2,0.8,0.2,1.6,0.1,2.4l-0.9,7.1
		c-0.1,0.8-0.1,1.3-0.1,1.8c0,0.4,0.2,1,0.4,1.6h-5.7c-0.2-0.4-0.3-0.7-0.3-0.9c0-0.2-0.1-0.6-0.1-1c-0.9,0.8-1.8,1.3-2.6,1.7
		c-1.1,0.4-2.4,0.7-3.8,0.7c-1.9,0-3.3-0.4-4.1-1.3c-0.9-0.9-1.2-2-1-3.3c0.2-1.2,0.6-2.2,1.5-3c0.8-0.8,2.2-1.4,4.1-1.8
		c2.3-0.5,3.9-0.8,4.6-1s1.5-0.4,2.2-0.7c0.1-0.8,0-1.3-0.3-1.6c-0.3-0.3-0.8-0.5-1.6-0.5c-1,0-1.8,0.2-2.3,0.5
		C44.9,61.9,44.5,62.4,44.2,63.1z M49,66.3c-0.9,0.3-1.8,0.6-2.7,0.8c-1.3,0.3-2.1,0.7-2.5,1c-0.4,0.3-0.6,0.7-0.7,1.1
		c-0.1,0.5,0.1,0.9,0.3,1.2s0.8,0.5,1.4,0.5c0.7,0,1.3-0.2,2-0.5c0.6-0.3,1.1-0.7,1.4-1.2c0.3-0.5,0.5-1.1,0.6-1.9L49,66.3z"/>
	<path fill="#FFFFFF" d="M54.9,69.5l6.1-0.6c0.2,0.7,0.4,1.2,0.8,1.6s1,0.5,1.7,0.5c0.8,0,1.5-0.2,2-0.5c0.4-0.3,0.6-0.6,0.7-1
		c0.1-0.4-0.1-0.8-0.6-1c-0.3-0.2-1.2-0.4-2.5-0.6c-2.1-0.4-3.5-0.7-4.3-1c-0.8-0.3-1.4-0.9-1.9-1.6c-0.5-0.8-0.6-1.6-0.5-2.6
		c0.1-1.1,0.6-2,1.3-2.7c0.7-0.8,1.6-1.3,2.7-1.7c1.1-0.4,2.6-0.6,4.4-0.6c1.9,0,3.3,0.1,4.1,0.4c0.9,0.3,1.6,0.7,2.1,1.4
		c0.5,0.6,0.9,1.4,1.2,2.5l-5.8,0.6c-0.1-0.5-0.3-0.9-0.6-1.1c-0.4-0.3-1-0.5-1.7-0.5c-0.7,0-1.2,0.1-1.6,0.4
		c-0.3,0.2-0.5,0.5-0.6,0.9c-0.1,0.4,0.1,0.7,0.5,0.9c0.4,0.2,1.2,0.4,2.5,0.5c2,0.2,3.5,0.6,4.4,1c0.9,0.4,1.6,1,2,1.8
		c0.4,0.8,0.6,1.6,0.5,2.5c-0.1,0.9-0.5,1.8-1.2,2.7C70,72.3,69,73,67.8,73.5c-1.3,0.5-2.9,0.8-5,0.8c-2.9,0-4.9-0.4-6-1.3
		C55.6,72.2,55,71,54.9,69.5z"/>
	<path fill="#FFFFFF" d="M82,51.8l-0.8,6.1h3.3L84,62.4h-3.3l-0.7,5.7c-0.1,0.7-0.1,1.1,0,1.4c0.2,0.3,0.5,0.5,1,0.5
		c0.4,0,1.1-0.1,1.9-0.4l-0.1,4.3c-1.5,0.3-3,0.5-4.3,0.5c-1.5,0-2.6-0.2-3.3-0.6c-0.7-0.4-1.1-1-1.4-1.8c-0.2-0.8-0.2-2.1,0-3.9
		l0.7-5.7h-2.2l0.6-4.5h2.2l0.4-3L82,51.8z"/>
	<path fill="#FFFFFF" d="M101.5,67.4H89.3c0,1,0.2,1.7,0.5,2.2c0.5,0.7,1.2,1,2.2,1c0.6,0,1.2-0.2,1.8-0.5c0.4-0.2,0.8-0.5,1.2-1
		l5.9,0.6c-1.1,1.6-2.4,2.8-3.8,3.5c-1.4,0.7-3.3,1.1-5.7,1.1c-2.1,0-3.7-0.3-4.8-0.9c-1.1-0.6-2-1.6-2.6-2.9
		c-0.6-1.3-0.8-2.8-0.6-4.6c0.3-2.5,1.4-4.5,3.2-6.1c1.8-1.6,4.1-2.3,6.9-2.3c2.3,0,4,0.3,5.2,1c1.2,0.7,2.1,1.7,2.6,3
		s0.6,3,0.4,5.2L101.5,67.4z M95.7,64.5c0-1.2-0.2-2-0.6-2.6c-0.4-0.5-1.1-0.8-1.9-0.8c-1,0-1.8,0.4-2.5,1.2c-0.4,0.5-0.8,1.2-1,2.2
		H95.7z"/>
	<path fill="#FFFFFF" d="M103.3,57.9h5.7l-0.3,2.6c0.7-1.1,1.4-1.9,2-2.4s1.4-0.6,2.2-0.6c0.9,0,1.8,0.3,2.8,0.8l-2.5,4.4
		c-0.7-0.3-1.2-0.5-1.6-0.5c-0.8,0-1.5,0.3-2,1c-0.7,0.9-1.3,2.7-1.6,5.3l-0.7,5.4h-6.1L103.3,57.9z"/>
	<path fill="#FFFFFF" d="M128.7,64.9l5.7,1.8c-0.6,1.7-1.4,3.1-2.4,4.2c-1,1.1-2.2,2-3.5,2.6c-1.3,0.6-3,0.9-5,0.9
		c-2.4,0-4.3-0.4-5.7-1.1c-1.4-0.7-2.6-1.9-3.4-3.7c-0.9-1.8-1.1-4-0.8-6.8c0.5-3.7,1.8-6.5,4-8.5c2.2-2,5-3,8.6-3
		c2.8,0,4.9,0.6,6.3,1.7c1.4,1.1,2.4,2.9,2.8,5.2l-6.2,1.3c-0.1-0.7-0.3-1.2-0.5-1.5c-0.3-0.5-0.7-0.9-1.2-1.2
		c-0.5-0.3-1.1-0.4-1.8-0.4c-1.5,0-2.8,0.6-3.8,1.9c-0.7,0.9-1.2,2.4-1.5,4.4c-0.3,2.5-0.2,4.1,0.5,5.1c0.6,0.9,1.6,1.4,2.9,1.4
		c1.3,0,2.3-0.4,3.1-1.1C127.6,67.3,128.2,66.3,128.7,64.9z"/>
	<path fill="#FFFFFF" d="M141,63.1l-5.7-0.6c0.4-1,0.8-1.8,1.3-2.4c0.5-0.6,1.2-1.1,2-1.5c0.6-0.3,1.4-0.6,2.4-0.7
		c1-0.2,2.1-0.3,3.2-0.3c1.8,0,3.3,0.1,4.4,0.3c1.1,0.2,1.9,0.6,2.6,1.3c0.5,0.5,0.8,1.1,1,1.9c0.2,0.8,0.2,1.6,0.1,2.4l-0.9,7.1
		c-0.1,0.8-0.1,1.3-0.1,1.8c0,0.4,0.2,1,0.4,1.6h-5.7c-0.2-0.4-0.3-0.7-0.3-0.9c0-0.2-0.1-0.6-0.1-1c-0.9,0.8-1.8,1.3-2.6,1.7
		c-1.1,0.4-2.4,0.7-3.8,0.7c-1.9,0-3.3-0.4-4.1-1.3c-0.9-0.9-1.2-2-1-3.3c0.2-1.2,0.6-2.2,1.5-3c0.8-0.8,2.2-1.4,4.1-1.8
		c2.3-0.5,3.9-0.8,4.6-1c0.7-0.2,1.5-0.4,2.2-0.7c0.1-0.8,0-1.3-0.3-1.6c-0.3-0.3-0.8-0.5-1.6-0.5c-1,0-1.8,0.2-2.3,0.5
		C141.7,61.9,141.3,62.4,141,63.1z M145.8,66.3c-0.9,0.3-1.8,0.6-2.7,0.8c-1.3,0.3-2.1,0.7-2.5,1c-0.4,0.3-0.6,0.7-0.7,1.1
		c-0.1,0.5,0.1,0.9,0.3,1.2s0.8,0.5,1.4,0.5c0.7,0,1.3-0.2,2-0.5c0.6-0.3,1.1-0.7,1.4-1.2c0.3-0.5,0.5-1.1,0.6-1.9L145.8,66.3z"/>
	<path fill="#FFFFFF" d="M154.3,57.9h5.7l-0.3,2.6c0.7-1.1,1.4-1.9,2-2.4c0.6-0.4,1.4-0.6,2.2-0.6c0.9,0,1.8,0.3,2.8,0.8l-2.5,4.4
		c-0.7-0.3-1.2-0.5-1.6-0.5c-0.8,0-1.5,0.3-2,1c-0.7,0.9-1.3,2.7-1.6,5.3l-0.7,5.4h-6.1L154.3,57.9z"/>
	<path fill="#FFFFFF" d="M183.8,51.8l-2.9,22.2h-5.7l0.3-2.4c-0.9,1-1.7,1.7-2.4,2c-0.9,0.5-1.9,0.7-3,0.7c-2.2,0-3.7-0.8-4.6-2.5
		c-0.9-1.7-1.2-3.7-0.9-6.1c0.3-2.7,1.2-4.7,2.7-6.1c1.4-1.4,3.1-2.1,5.1-2.1c0.9,0,1.8,0.2,2.5,0.5c0.7,0.3,1.4,0.8,1.9,1.5l1-7.7
		H183.8z M175.8,65.9c0.2-1.3,0-2.2-0.4-2.8c-0.4-0.6-1.1-0.9-1.9-0.9c-0.7,0-1.3,0.3-1.9,0.9c-0.6,0.6-0.9,1.6-1.1,3
		c-0.2,1.3,0,2.3,0.4,2.9c0.4,0.6,1,0.9,1.7,0.9c0.8,0,1.5-0.3,2.1-0.9C175.3,68.3,175.7,67.3,175.8,65.9z"/>
</g>
</svg>
