<?xml version="1.0" encoding="utf-8"?>
<!-- Generator: Adobe Illustrator 18.1.1, SVG Export Plug-In . SVG Version: 6.00 Build 0)  -->
<!DOCTYPE svg PUBLIC "-//W3C//DTD SVG 1.1//EN" "http://www.w3.org/Graphics/SVG/1.1/DTD/svg11.dtd">
<svg version="1.1" id="Layer_1" xmlns="http://www.w3.org/2000/svg" xmlns:xlink="http://www.w3.org/1999/xlink" x="0px" y="0px"
	 viewBox="0 0 200 131.2" enable-background="new 0 0 200 131.2" xml:space="preserve">
<g id="Shape_327_28_">
	<path fill-rule="evenodd" clip-rule="evenodd" fill="#F1F1F1" d="M191.3,0H8.7C3.9,0,0,4.1,0,9v113.1c0,5,3.9,9,8.7,9h182.6
		c4.8,0,8.7-4.1,8.7-9V9C200,4.1,196.1,0,191.3,0z"/>
</g>
<g id="Shape_335_6_">
	<path fill-rule="evenodd" clip-rule="evenodd" fill="#3284AE" d="M64,51.5c-4.4,0-7.9,1.3-10.4,1.8l-0.8,7.2c1.2-0.7,5.4-1.9,8.9-2
		c3.5-0.1,5.5,0.7,4.9,3.9c-10.3,0-17.3,2.3-18.7,9.4c-2,12.3,10.5,11.9,15.4,6.6l-0.6,3H72l4-19.6C77.6,53.4,70.4,51.4,64,51.5z
		 M64.7,71.5c-0.5,2.6-2.6,3.8-4.9,3.9c-2,0.1-3.8-1.8-2.5-4.1c1-1.9,3.9-2.4,5.5-2.4h2.4C65,69.8,64.8,70.6,64.7,71.5z M99.9,52
		l-9.1,17.4L89.3,52H80l3.8,29.4L77,93.7h10.4L109.6,52H99.9z M40.8,43.9H23.4l-7.7,37.4h10.2l2.5-12.4h7.3c7,0,12.8-4.5,14.4-12.3
		C51.9,47.8,45.9,43.9,40.8,43.9z M40.5,56.6c-0.6,2.8-3.2,5.1-5.8,5.1h-4.8l2.2-10.2h5C39.6,51.5,41.2,53.7,40.5,56.6z"/>
</g>
<g id="Shape_335_4_">
	<path fill-rule="evenodd" clip-rule="evenodd" fill="#3CA9C7" d="M154.8,51.5c-4.5,0-8,1.3-10.7,1.8l-0.8,7.2
		c1.3-0.7,5.6-1.9,9.1-2c3.5-0.1,5.6,0.7,4.9,3.9c-10.5,0-17.5,2.3-19,9.4c-2.1,12.3,10.7,11.9,15.7,6.6l-0.6,3h9.3l4-19.6
		C168.5,53.4,161.3,51.4,154.8,51.5z M155.4,71.5c-0.5,2.6-2.5,3.8-4.9,3.9c-2.1,0.1-3.9-1.8-2.6-4.1c1-1.9,3.9-2.4,5.7-2.4h2.3
		C155.7,69.8,155.6,70.6,155.4,71.5z M174.8,43.7l-7.7,37.5h9.5l7.8-37.5H174.8z M131.3,43.9h-17.3l-7.7,37.4h10.1l2.6-12.4h7.2
		c7.1,0,12.9-4.5,14.4-12.3C142.3,47.8,136.3,43.9,131.3,43.9z M131,56.6c-0.6,2.8-3.3,5.1-5.9,5.1h-4.7l2.1-10.2h5
		C130,51.5,131.6,53.7,131,56.6z"/>
</g>
</svg>
