<?xml version="1.0" encoding="utf-8"?>
<!-- Generator: Adobe Illustrator 18.1.1, SVG Export Plug-In . SVG Version: 6.00 Build 0)  -->
<!DOCTYPE svg PUBLIC "-//W3C//DTD SVG 1.1//EN" "http://www.w3.org/Graphics/SVG/1.1/DTD/svg11.dtd">
<svg version="1.1" id="Layer_1" xmlns="http://www.w3.org/2000/svg" xmlns:xlink="http://www.w3.org/1999/xlink" x="0px" y="0px"
	 viewBox="0 0 100 25.4" enable-background="new 0 0 100 25.4" xml:space="preserve">
<path fill="#003087" d="M18.3,1.9C17.1,0.6,15,0,12.3,0H4.4c-0.6,0-1,0.4-1.1,1L0,21.8c-0.1,0.4,0.3,0.8,0.7,0.8h4.9l1.2-7.8l0,0.2
	c0.1-0.5,0.6-1,1.1-1h2.3c4.5,0,8.1-1.8,9.1-7.2c0-0.2,0.1-0.3,0.1-0.5c-0.1-0.1-0.1-0.1,0,0C19.7,4.5,19.4,3.1,18.3,1.9"/>
<path fill="#009CDE" d="M77.2,6.7h-5.4c-0.4,0-0.7,0.3-0.7,0.6l-2.2,14c0,0.3,0.2,0.5,0.4,0.5h2.8c0.3,0,0.5-0.2,0.5-0.4l0.6-4
	c0.1-0.4,0.4-0.6,0.7-0.6h1.7c3.6,0,5.7-1.7,6.2-5.2c0.2-1.5,0-2.7-0.7-3.5C80.4,7.2,79.1,6.7,77.2,6.7 M77.9,11.8
	c-0.3,2-1.8,2-3.2,2h-0.8l0.6-3.6c0-0.2,0.2-0.4,0.4-0.4h0.4c1,0,1.9,0,2.4,0.6C77.9,10.6,78,11.1,77.9,11.8"/>
<path fill="#003087" d="M38.4,6.7H33c-0.4,0-0.7,0.3-0.7,0.6l-2.2,14c0,0.3,0.2,0.5,0.4,0.5h2.6c0.4,0,0.7-0.3,0.7-0.6l0.6-3.8
	c0.1-0.4,0.4-0.6,0.7-0.6h1.7c3.6,0,5.7-1.7,6.2-5.2c0.2-1.5,0-2.7-0.7-3.5C41.6,7.2,40.3,6.7,38.4,6.7 M39.1,11.8
	c-0.3,2-1.8,2-3.2,2H35l0.6-3.6c0-0.2,0.2-0.4,0.4-0.4h0.4c1,0,1.9,0,2.4,0.6C39.1,10.6,39.2,11.1,39.1,11.8"/>
<path fill="#003087" d="M54.7,11.8h-2.6c-0.2,0-0.4,0.2-0.4,0.4l-0.1,0.7l-0.2-0.3c-0.6-0.8-1.8-1.1-3.1-1.1c-2.9,0-5.3,2.2-5.8,5.2
	c-0.2,1.5,0.1,3,1,4c0.8,0.9,1.9,1.3,3.3,1.3c2.3,0,3.6-1.5,3.6-1.5l-0.1,0.7c0,0.3,0.2,0.5,0.4,0.5H53c0.4,0,0.7-0.3,0.7-0.6
	l1.4-8.9C55.2,12,55,11.8,54.7,11.8 M51.1,16.8c-0.3,1.5-1.4,2.5-2.9,2.5c-0.8,0-1.4-0.2-1.7-0.7c-0.4-0.5-0.5-1.1-0.4-1.8
	c0.2-1.5,1.4-2.5,2.9-2.5c0.7,0,1.3,0.2,1.7,0.7C51,15.5,51.2,16.1,51.1,16.8"/>
<path fill="#009CDE" d="M93.5,11.8h-2.6c-0.2,0-0.4,0.2-0.4,0.4l-0.1,0.7l-0.2-0.3c-0.6-0.8-1.8-1.1-3.1-1.1c-2.9,0-5.3,2.2-5.8,5.2
	c-0.2,1.5,0.1,3,1,4c0.8,0.9,1.9,1.3,3.3,1.3c2.3,0,3.6-1.5,3.6-1.5L89,21.3c0,0.3,0.2,0.5,0.4,0.5h2.3c0.4,0,0.7-0.3,0.7-0.6
	l1.4-8.9C94,12,93.8,11.8,93.5,11.8 M89.9,16.8c-0.3,1.5-1.4,2.5-2.9,2.5c-0.8,0-1.4-0.2-1.7-0.7c-0.4-0.5-0.5-1.1-0.4-1.8
	c0.2-1.5,1.4-2.5,2.9-2.5c0.7,0,1.3,0.2,1.7,0.7C89.8,15.5,90,16.1,89.9,16.8"/>
<path fill="#003087" d="M68.6,11.8H66c-0.3,0-0.5,0.1-0.6,0.3l-3.6,5.3l-1.5-5.1c-0.1-0.3-0.4-0.5-0.7-0.5h-2.6
	c-0.3,0-0.5,0.3-0.4,0.6l2.9,8.5l-2.7,3.8c-0.2,0.3,0,0.7,0.4,0.7h2.6c0.2,0,0.5-0.1,0.6-0.3L69,12.5C69.2,12.2,68.9,11.8,68.6,11.8
	"/>
<path fill="#009CDE" d="M96.6,7.1l-2.2,14.2c0,0.3,0.2,0.5,0.4,0.5H97c0.4,0,0.7-0.3,0.7-0.6l2.2-14c0-0.3-0.2-0.5-0.4-0.5H97
	C96.8,6.7,96.6,6.9,96.6,7.1"/>
<path fill="#003087" d="M18.3,1.9C17.1,0.6,15,0,12.3,0H4.4c-0.6,0-1,0.4-1.1,1L0,21.8c-0.1,0.4,0.3,0.8,0.7,0.8h4.9l1.2-7.8l0,0.2
	c0.1-0.5,0.6-1,1.1-1h2.3c4.5,0,8.1-1.8,9.1-7.2c0-0.2,0.1-0.3,0.1-0.5c-0.1-0.1-0.1-0.1,0,0C19.7,4.5,19.4,3.1,18.3,1.9"/>
<path fill="#003087" d="M8.1,6.5c0.1-0.3,0.3-0.6,0.5-0.7c0.1-0.1,0.3-0.1,0.4-0.1h6.2c0.7,0,1.4,0,2,0.1c0.2,0,0.4,0.1,0.5,0.1
	C18,5.9,18.1,6,18.3,6c0.1,0,0.2,0,0.2,0.1c0.3,0.1,0.6,0.2,0.9,0.4c0.3-2,0-3.3-1.1-4.5C17.1,0.6,15,0,12.3,0H4.4
	c-0.6,0-1,0.4-1.1,1L0,21.8c-0.1,0.4,0.3,0.8,0.7,0.8h4.9l1.2-7.8L8.1,6.5z"/>
<path fill="#009CDE" d="M19.4,6.4L19.4,6.4c0,0.2,0,0.3-0.1,0.5c-1,5.3-4.6,7.2-9.1,7.2H7.8c-0.6,0-1,0.4-1.1,1l-1.2,7.5l-0.3,2.1
	c-0.1,0.4,0.2,0.7,0.6,0.7h4.1c0.5,0,0.9-0.4,1-0.8l0-0.2l0.8-4.9l0-0.3c0.1-0.5,0.5-0.8,1-0.8h0.6c4,0,7.1-1.6,8-6.3
	c0.4-2,0.2-3.6-0.8-4.7C20.2,7,19.8,6.7,19.4,6.4"/>
<path fill="#012169" d="M18.3,6c-0.2,0-0.3-0.1-0.5-0.1c-0.2,0-0.3-0.1-0.5-0.1c-0.6-0.1-1.3-0.1-2-0.1H9.1c-0.2,0-0.3,0-0.4,0.1
	C8.3,5.9,8.1,6.1,8.1,6.5l-1.3,8.3l0,0.2c0.1-0.5,0.6-1,1.1-1h2.3c4.5,0,8.1-1.8,9.1-7.2c0-0.2,0.1-0.3,0.1-0.5
	c-0.3-0.1-0.5-0.3-0.9-0.4C18.4,6.1,18.4,6,18.3,6"/>
</svg>
