<?xml version="1.0" encoding="utf-8"?>
<!-- Generator: Adobe Illustrator 18.1.1, SVG Export Plug-In . SVG Version: 6.00 Build 0)  -->
<!DOCTYPE svg PUBLIC "-//W3C//DTD SVG 1.1//EN" "http://www.w3.org/Graphics/SVG/1.1/DTD/svg11.dtd">
<svg version="1.1" id="Layer_1" xmlns="http://www.w3.org/2000/svg" xmlns:xlink="http://www.w3.org/1999/xlink" x="0px" y="0px"
	 viewBox="0 0 200.1 132" enable-background="new 0 0 200.1 132" xml:space="preserve">
<path fill="#FFFFFF" d="M190.1,131.9h-180c-5.5,0-10-4.5-10-10V10.8c0-5.5,4.5-10,10-10h180c5.5,0,10,4.5,10,10v111.2
	C200.1,127.4,195.6,131.9,190.1,131.9z"/>
<path fill="#E59703" d="M0,102v19.8c0,5.5,4.7,10.2,10.2,10.2H190c5.5,0,10-4.6,10-10.2V102H0z"/>
<path fill="#494CA3" d="M190,0H10.2C4.7,0,0,5.3,0,10.8V33h200V10.8C200,5.3,195.6,0,190,0z"/>
<g id="Shape_328_6_">
	<path fill-rule="evenodd" clip-rule="evenodd" fill="#494CA3" d="M33.1,47.7c-0.2-0.1-0.4-0.2-0.7-0.2
		C32.7,47.6,32.9,47.6,33.1,47.7z M31.5,47.2c-0.2-0.1-0.3-0.1-0.5-0.2C31.1,47.1,31.3,47.1,31.5,47.2z M68.7,45.9L58,77.2l-1.3-6.7
		l0,0c0,0-2.5-8.3-10.3-14.9c-1.6-1.4-3.3-2.6-4.9-3.6l9.7,39.4H63l17.8-45.4H68.7z M30.3,46.8c-0.1,0-0.2-0.1-0.2-0.1
		C30.2,46.8,30.2,46.8,30.3,46.8z M158.2,45.9h-9c-4.2,0-5.2,3.4-5.2,3.4l-16.7,42H139l2.3-6.7h14.3l1.3,6.7h10.3L158.2,45.9z
		 M144.6,75.3l5.9-17l3.3,17H144.6z M85.2,45.9l-7,45.4h11.2l7-45.4H85.2z M112.5,58.9c0-5,10.9-4.3,15.7-1.6l1.6-9.4
		c0,0-4.9-1.9-10.1-1.9c-5.6,0-18.8,2.5-18.8,14.5c0,11.3,15.5,11.5,15.5,17.4c0,6-13.9,4.9-18.5,1.1l-1.7,9.9c0,0,5,2.5,12.7,2.5
		c7.6,0,19.2-4,19.2-15C128.1,64.9,112.5,63.8,112.5,58.9z"/>
</g>
<g id="Shape_328_4_">
	<path fill-rule="evenodd" clip-rule="evenodd" fill="#FFC000" d="M53,50c0,0-0.5-4.1-5.3-4.1H30l-0.2,0.8c0,0,8.5,1.9,16.6,8.8
		c7.8,6.6,10.3,14.9,10.3,14.9L53,50z"/>
</g>
</svg>
