<?xml version="1.0" encoding="utf-8"?>
<!-- Generator: Adobe Illustrator 18.1.0, SVG Export Plug-In . SVG Version: 6.00 Build 0)  -->
<!DOCTYPE svg PUBLIC "-//W3C//DTD SVG 1.1//EN" "http://www.w3.org/Graphics/SVG/1.1/DTD/svg11.dtd">
<svg version="1.1" id="main" xmlns="http://www.w3.org/2000/svg" xmlns:xlink="http://www.w3.org/1999/xlink" x="0px" y="0px"
	 viewBox="0 0 992.2 992.2" enable-background="new 0 0 992.2 992.2" xml:space="preserve">
<g id="ring">
	<g id="outer">
		<path fill="#FFFFFF" d="M988.7,496.1c0,9.2-8.2,18.1-8.7,27.2c-0.5,9.2,6.7,18.9,5.7,28c-1,9.1-10.2,17.1-11.7,26
			c-1.5,9.1,4.5,19.6,2.5,28.4c-2,8.9-12.1,15.8-14.6,24.6c-2.5,8.8,2.3,19.9-0.7,28.5c-3,8.6-13.8,14.3-17.3,22.8
			c-3.5,8.5,0,20.1-3.9,28.3c-4,8.2-15.3,12.7-19.7,20.7c-4.4,8-2.2,19.9-7.1,27.7c-4.9,7.7-16.6,10.9-21.9,18.3
			c-5.3,7.5-4.4,19.6-10.1,26.7c-5.7,7.1-17.7,9-23.8,15.8c-6.1,6.8-6.6,18.9-13,25.4c-6.5,6.5-18.6,6.9-25.4,13
			c-6.8,6.1-8.6,18.1-15.8,23.8c-7.1,5.7-19.2,4.8-26.7,10.1c-7.4,5.3-10.6,17-18.3,21.9c-7.7,4.9-19.7,2.6-27.7,7.1
			c-8,4.4-12.4,15.7-20.7,19.7c-8.2,4-19.8,0.4-28.3,3.9c-8.4,3.5-14.1,14.2-22.8,17.3c-8.6,3-19.7-1.8-28.5,0.7
			c-8.8,2.5-15.6,12.5-24.6,14.6c-8.9,2-19.4-4.1-28.4-2.5c-9,1.5-16.9,10.7-26,11.7c-9,1-18.8-6.2-28-5.7c-9.1,0.5-18,8.7-27.2,8.7
			c-9.2,0-18.1-8.2-27.2-8.7c-9.2-0.5-18.9,6.7-28,5.7c-9.1-1-17.1-10.2-26-11.7c-9.1-1.5-19.6,4.5-28.4,2.5
			c-8.9-2-15.8-12.1-24.6-14.6c-8.8-2.5-19.9,2.3-28.5-0.7c-8.6-3-14.3-13.8-22.8-17.3c-8.5-3.5-20.1,0-28.3-3.9
			c-8.2-4-12.7-15.3-20.7-19.7c-8-4.4-19.9-2.2-27.7-7.1c-7.7-4.9-10.9-16.6-18.3-21.9c-7.5-5.3-19.6-4.4-26.7-10.1
			c-7.1-5.7-9-17.7-15.8-23.8c-6.8-6.1-18.9-6.6-25.4-13c-6.5-6.5-6.9-18.6-13-25.4c-6.1-6.8-18.1-8.6-23.8-15.8
			c-5.7-7.1-4.8-19.2-10.1-26.7c-5.3-7.4-17-10.6-21.9-18.3c-4.9-7.7-2.6-19.7-7.1-27.7c-4.4-8-15.7-12.4-19.7-20.7
			c-4-8.2-0.4-19.8-3.9-28.3c-3.5-8.4-14.2-14.1-17.3-22.8c-3-8.6,1.8-19.7-0.7-28.5c-2.5-8.8-12.5-15.6-14.6-24.6
			c-2-8.9,4.1-19.4,2.5-28.4c-1.5-9-10.7-16.9-11.7-26c-1-9,6.2-18.8,5.7-28c-0.5-9.1-8.7-18-8.7-27.2c0-9.2,8.2-18.1,8.7-27.2
			c0.5-9.2-6.7-18.9-5.7-28c1-9.1,10.2-17.1,11.7-26c1.5-9.1-4.5-19.6-2.5-28.4c2-8.9,12.1-15.8,14.6-24.6
			c2.5-8.8-2.3-19.9,0.7-28.5c3-8.6,13.8-14.3,17.3-22.8c3.5-8.5,0-20.1,3.9-28.3c4-8.2,15.3-12.7,19.7-20.7
			c4.4-8,2.2-19.9,7.1-27.7c4.9-7.7,16.6-10.9,21.9-18.3c5.3-7.5,4.4-19.6,10.1-26.7c5.7-7.1,17.7-9,23.8-15.8
			c6.1-6.8,6.6-18.9,13-25.4c6.5-6.5,18.6-6.9,25.4-13c6.8-6.1,8.6-18.1,15.8-23.8c7.1-5.7,19.2-4.8,26.7-10.1
			c7.4-5.3,10.6-17,18.3-21.9c7.7-4.9,19.7-2.6,27.7-7.1c8-4.4,12.4-15.7,20.7-19.7c8.2-4,19.8-0.4,28.3-3.9
			C319,44.8,324.7,34,333.4,31c8.6-3,19.7,1.8,28.5-0.7c8.8-2.5,15.6-12.5,24.6-14.6c8.9-2,19.4,4.1,28.4,2.5
			c9-1.5,16.9-10.7,26-11.7c9-1,18.8,6.2,28,5.7c9.1-0.5,18-8.7,27.2-8.7c9.2,0,18.1,8.2,27.2,8.7c9.2,0.5,18.9-6.7,28-5.7
			c9.1,1,17.1,10.2,26,11.7c9.1,1.5,19.6-4.5,28.4-2.5c8.9,2,15.8,12.1,24.6,14.6c8.8,2.5,19.9-2.3,28.5,0.7
			c8.6,3,14.3,13.8,22.8,17.3c8.5,3.5,20.1,0,28.3,3.9c8.2,4,12.7,15.3,20.7,19.7c8,4.4,19.9,2.2,27.7,7.1
			c7.7,4.9,10.9,16.6,18.3,21.9c7.5,5.3,19.6,4.4,26.7,10.1c7.1,5.7,9,17.7,15.8,23.8c6.8,6.1,18.9,6.6,25.4,13
			c6.5,6.5,6.9,18.6,13,25.4c6.1,6.8,18.1,8.6,23.8,15.8c5.7,7.1,4.8,19.2,10.1,26.7c5.3,7.4,17,10.6,21.9,18.3
			c4.9,7.7,2.6,19.7,7.1,27.7c4.4,8,15.7,12.4,19.7,20.7c4,8.2,0.4,19.8,3.9,28.3c3.5,8.4,14.2,14.1,17.3,22.8
			c3,8.6-1.8,19.7,0.7,28.5c2.5,8.8,12.5,15.6,14.6,24.6c2,8.9-4.1,19.4-2.5,28.4c1.5,9,10.7,16.9,11.7,26c1,9-6.2,18.8-5.7,28
			C980.5,478,988.7,486.9,988.7,496.1z"/>
		<path fill="none" stroke="#E2E2E2" stroke-width="7" stroke-miterlimit="10" d="M988.7,496.1c0,9.2-8.2,18.1-8.7,27.2
			c-0.5,9.2,6.7,18.9,5.7,28c-1,9.1-10.2,17.1-11.7,26c-1.5,9.1,4.5,19.6,2.5,28.4c-2,8.9-12.1,15.8-14.6,24.6
			c-2.5,8.8,2.3,19.9-0.7,28.5c-3,8.6-13.8,14.3-17.3,22.8c-3.5,8.5,0,20.1-3.9,28.3c-4,8.2-15.3,12.7-19.7,20.7
			c-4.4,8-2.2,19.9-7.1,27.7c-4.9,7.7-16.6,10.9-21.9,18.3c-5.3,7.5-4.4,19.6-10.1,26.7c-5.7,7.1-17.7,9-23.8,15.8
			c-6.1,6.8-6.6,18.9-13,25.4c-6.5,6.5-18.6,6.9-25.4,13c-6.8,6.1-8.6,18.1-15.8,23.8c-7.1,5.7-19.2,4.8-26.7,10.1
			c-7.4,5.3-10.6,17-18.3,21.9c-7.7,4.9-19.7,2.6-27.7,7.1c-8,4.4-12.4,15.7-20.7,19.7c-8.2,4-19.8,0.4-28.3,3.9
			c-8.4,3.5-14.1,14.2-22.8,17.3c-8.6,3-19.7-1.8-28.5,0.7c-8.8,2.5-15.6,12.5-24.6,14.6c-8.9,2-19.4-4.1-28.4-2.5
			c-9,1.5-16.9,10.7-26,11.7c-9,1-18.8-6.2-28-5.7c-9.1,0.5-18,8.7-27.2,8.7c-9.2,0-18.1-8.2-27.2-8.7c-9.2-0.5-18.9,6.7-28,5.7
			c-9.1-1-17.1-10.2-26-11.7c-9.1-1.5-19.6,4.5-28.4,2.5c-8.9-2-15.8-12.1-24.6-14.6c-8.8-2.5-19.9,2.3-28.5-0.7
			c-8.6-3-14.3-13.8-22.8-17.3c-8.5-3.5-20.1,0-28.3-3.9c-8.2-4-12.7-15.3-20.7-19.7c-8-4.4-19.9-2.2-27.7-7.1
			c-7.7-4.9-10.9-16.6-18.3-21.9c-7.5-5.3-19.6-4.4-26.7-10.1c-7.1-5.7-9-17.7-15.8-23.8c-6.8-6.1-18.9-6.6-25.4-13
			c-6.5-6.5-6.9-18.6-13-25.4c-6.1-6.8-18.1-8.6-23.8-15.8c-5.7-7.1-4.8-19.2-10.1-26.7c-5.3-7.4-17-10.6-21.9-18.3
			c-4.9-7.7-2.6-19.7-7.1-27.7c-4.4-8-15.7-12.4-19.7-20.7c-4-8.2-0.4-19.8-3.9-28.3c-3.5-8.4-14.2-14.1-17.3-22.8
			c-3-8.6,1.8-19.7-0.7-28.5c-2.5-8.8-12.5-15.6-14.6-24.6c-2-8.9,4.1-19.4,2.5-28.4c-1.5-9-10.7-16.9-11.7-26c-1-9,6.2-18.8,5.7-28
			c-0.5-9.1-8.7-18-8.7-27.2c0-9.2,8.2-18.1,8.7-27.2c0.5-9.2-6.7-18.9-5.7-28c1-9.1,10.2-17.1,11.7-26c1.5-9.1-4.5-19.6-2.5-28.4
			c2-8.9,12.1-15.8,14.6-24.6c2.5-8.8-2.3-19.9,0.7-28.5c3-8.6,13.8-14.3,17.3-22.8c3.5-8.5,0-20.1,3.9-28.3
			c4-8.2,15.3-12.7,19.7-20.7c4.4-8,2.2-19.9,7.1-27.7c4.9-7.7,16.6-10.9,21.9-18.3c5.3-7.5,4.4-19.6,10.1-26.7
			c5.7-7.1,17.7-9,23.8-15.8c6.1-6.8,6.6-18.9,13-25.4c6.5-6.5,18.6-6.9,25.4-13c6.8-6.1,8.6-18.1,15.8-23.8
			c7.1-5.7,19.2-4.8,26.7-10.1c7.4-5.3,10.6-17,18.3-21.9c7.7-4.9,19.7-2.6,27.7-7.1c8-4.4,12.4-15.7,20.7-19.7
			c8.2-4,19.8-0.4,28.3-3.9C319,44.8,324.7,34,333.4,31c8.6-3,19.7,1.8,28.5-0.7c8.8-2.5,15.6-12.5,24.6-14.6
			c8.9-2,19.4,4.1,28.4,2.5c9-1.5,16.9-10.7,26-11.7c9-1,18.8,6.2,28,5.7c9.1-0.5,18-8.7,27.2-8.7c9.2,0,18.1,8.2,27.2,8.7
			c9.2,0.5,18.9-6.7,28-5.7c9.1,1,17.1,10.2,26,11.7c9.1,1.5,19.6-4.5,28.4-2.5c8.9,2,15.8,12.1,24.6,14.6
			c8.8,2.5,19.9-2.3,28.5,0.7c8.6,3,14.3,13.8,22.8,17.3c8.5,3.5,20.1,0,28.3,3.9c8.2,4,12.7,15.3,20.7,19.7
			c8,4.4,19.9,2.2,27.7,7.1c7.7,4.9,10.9,16.6,18.3,21.9c7.5,5.3,19.6,4.4,26.7,10.1c7.1,5.7,9,17.7,15.8,23.8
			c6.8,6.1,18.9,6.6,25.4,13c6.5,6.5,6.9,18.6,13,25.4c6.1,6.8,18.1,8.6,23.8,15.8c5.7,7.1,4.8,19.2,10.1,26.7
			c5.3,7.4,17,10.6,21.9,18.3c4.9,7.7,2.6,19.7,7.1,27.7c4.4,8,15.7,12.4,19.7,20.7c4,8.2,0.4,19.8,3.9,28.3
			c3.5,8.4,14.2,14.1,17.3,22.8c3,8.6-1.8,19.7,0.7,28.5c2.5,8.8,12.5,15.6,14.6,24.6c2,8.9-4.1,19.4-2.5,28.4
			c1.5,9,10.7,16.9,11.7,26c1,9-6.2,18.8-5.7,28C980.5,478,988.7,486.9,988.7,496.1z"/>
	</g>
	
		<circle id="inner" fill="#FFFFFF" stroke="#E2E2E2" stroke-width="2" stroke-miterlimit="10" stroke-dasharray="28" cx="496.1" cy="496.1" r="455.5"/>
</g>
<g id="words">
	<line id="line-through" fill="none" stroke="#A09F9F" stroke-miterlimit="10" x1="183.1" y1="501.6" x2="806.1" y2="501.6"/>
	<text transform="matrix(1 0 0 1 182.2152 778.8408)"><tspan x="0" y="0" fill="#4F4F4F" font-family="'TrajanPro3-Bold'" font-size="112.5075">C</tspan><tspan x="92.3" y="0" fill="#4F4F4F" font-family="'TrajanPro3-Bold'" font-size="96.6777">reation</tspan><tspan x="566" y="0" fill="#4F4F4F" font-family="'TrajanPro3-Bold'" font-size="127.413">s</tspan></text>
	<text transform="matrix(1 0 0 1 189.6489 258.878)"><tspan x="0" y="0" fill="#4F4F4F" font-family="'TrajanPro3-Bold'" font-size="113.8701">S</tspan><tspan x="65.6" y="0" fill="#4F4F4F" font-family="'TrajanPro3-Bold'" font-size="97.8486">outher</tspan><tspan x="516" y="0" fill="#4F4F4F" font-family="'TrajanPro3-Bold'" font-size="113.8701">n</tspan></text>
	<g>
		<rect x="242.9" y="471.3" fill="#FFFFFF" width="88.2" height="60.7"/>
		<text transform="matrix(1 0 0 1 247.9082 510.8408)" font-family="'TrajanPro3-Regular'" font-size="39.4383">Est.</text>
		<text transform="matrix(1 0 0 1 247.9082 510.8408)" fill="#A8A8A8" font-family="'TrajanPro3-Regular'" font-size="39.4383">Est.</text>
	</g>
	<g>
		<rect x="672.3" y="471.3" fill="#FFFFFF" width="95.4" height="60.7"/>
		<text transform="matrix(1 0 0 1 677.2901 510.8408)" font-family="'TrajanPro3-Regular'" font-size="39.4383">2012</text>
		<text transform="matrix(1 0 0 1 677.2901 510.8408)" fill="#A8A8A8" font-family="'TrajanPro3-Regular'" font-size="39.4383">2012</text>
	</g>
</g>
<g id="cupcake_1_">
	
		<ellipse id="cake_1_" fill="#DDBE3A" stroke="#FFFFFF" stroke-width="4" stroke-miterlimit="10" cx="496.1" cy="500.7" rx="148.2" ry="27.2"/>
	<g id="case_3_">
		<path fill="#FFFFFF" d="M495.9,689.9c-23.6,0-46.7-2.9-66.8-8.4c-18.3-5-33.5-12.1-42.8-19.9c-8.6-7.2-12.5-14.7-11.4-22.3l0-0.2
			l0-0.2c-3.9-46.7-16.8-87.2-39.6-123.5c1.8,0.3,3.7,0.5,5.4,0.5c3.8,0,7.4-0.8,10.3-2.4c4,3.9,9.3,6.5,15,7.5
			c1.6,0.3,3.1,0.4,4.7,0.4c4,0,7.6-0.9,10.6-2.7c3.9,3.8,9,6.4,14.5,7.2c1.2,0.2,2.5,0.3,3.7,0.3c4.1,0,8-1.1,11.2-3.2
			c3.8,3.7,8.9,6.1,14.2,6.7c0.9,0.1,1.8,0.2,2.7,0.2c4.4,0,8.6-1.3,11.9-3.7c3.8,3.6,8.8,5.8,14.1,6.2c0.5,0,1.1,0.1,1.6,0.1
			c4.8,0,9.2-1.5,12.7-4.3c3.8,3.4,8.8,5.5,14.1,5.6c0.2,0,0.4,0,0.6,0c5.1,0,9.9-1.7,13.6-4.9c3.7,3.2,8.5,4.9,13.6,4.9
			c0.2,0,0.4,0,0.6,0c5.3-0.1,10.3-2.1,14.1-5.6c3.5,2.8,7.9,4.3,12.7,4.3c0.5,0,1.1,0,1.6-0.1c5.3-0.4,10.3-2.6,14.1-6.2
			c3.3,2.4,7.5,3.7,11.9,3.7c0.9,0,1.8-0.1,2.7-0.2c5.3-0.6,10.4-3,14.2-6.7c3.2,2.1,7.1,3.2,11.2,3.2c1.2,0,2.5-0.1,3.7-0.3
			c5.4-0.8,10.6-3.4,14.5-7.2c3,1.8,6.7,2.7,10.6,2.7c1.5,0,3.1-0.1,4.7-0.4c5.7-1,11-3.7,15-7.5c2.9,1.6,6.4,2.4,10.3,2.4
			c1.8,0,3.6-0.2,5.4-0.5c-22.7,36.3-35.7,76.7-39.6,123.5l0,0.3l0.1,0.3c1,5.3-0.8,10.7-5.3,16.2c-13.9,16.9-55.2,34-115.9,34.3
			H495.9z"/>
		<path fill="#FFFFFF" d="M350.7,516c4.2,3.6,9.4,6.1,15,7.1c1.7,0.3,3.4,0.5,5,0.5c3.8,0,7.3-0.8,10.3-2.3c4,3.6,9.1,5.9,14.5,6.7
			c1.3,0.2,2.7,0.3,4,0.3c3.9,0,7.7-0.9,10.9-2.7c3.9,3.4,9,5.7,14.2,6.3c1,0.1,1.9,0.2,2.9,0.2c4.3,0,8.3-1.1,11.7-3.2
			c3.9,3.3,8.9,5.3,14.1,5.7c0.6,0,1.2,0.1,1.8,0.1c4.6,0,9-1.3,12.6-3.7c4,3.1,8.9,4.9,14.1,5c0.2,0,0.4,0,0.6,0
			c5,0,9.7-1.6,13.6-4.4c3.9,2.8,8.7,4.4,13.6,4.4c0.2,0,0.4,0,0.6,0c5.2-0.1,10.2-1.9,14.1-5c3.6,2.4,8,3.7,12.6,3.7
			c0.6,0,1.2,0,1.8-0.1c5.2-0.4,10.2-2.4,14.1-5.7c3.4,2.1,7.4,3.2,11.7,3.2c1,0,1.9-0.1,2.9-0.2c5.3-0.6,10.3-2.8,14.2-6.3
			c3.2,1.7,7,2.7,10.9,2.7c1.3,0,2.7-0.1,4-0.3c5.4-0.8,10.5-3.2,14.5-6.7c3,1.5,6.5,2.3,10.3,2.3c1.6,0,3.3-0.2,5-0.5
			c5.6-1,10.8-3.5,15-7.1c2.9,1.3,6.3,2,9.9,2c0.5,0,1,0,1.5,0c-21.6,35.6-33.9,75.3-37.7,120.8l0,0.5l0.1,0.5
			c0.9,4.7-0.8,9.6-4.9,14.6c-7.4,8.9-22,17.2-41,23.2c-21.1,6.7-46.5,10.2-73.3,10.3l-0.2,0c-23.4,0-46.3-2.9-66.2-8.3
			c-18.1-4.9-33-11.9-42-19.5c-8.1-6.7-11.7-13.6-10.7-20.5l0.1-0.4l0-0.4c-3.8-45.6-16.1-85.2-37.7-120.8c0.5,0,1,0,1.5,0
			C344.4,517.9,347.8,517.3,350.7,516 M351.4,511c-2.8,1.8-6.4,2.9-10.6,2.9c-1.7,0-3.4-0.2-5.2-0.5c-1.6-0.3-3.2-0.7-4.7-1.3
			c26.7,40.7,38.4,83.2,42.1,126.9c-1.2,8.4,3,16.6,12.1,24.1c18.7,15.8,60.5,28.8,110.8,28.8c0.1,0,0.1,0,0.2,0
			c75.4-0.3,127.9-27.5,123.1-52.9c3.6-43.7,15.4-86.2,42.1-126.9c-1.5,0.5-3,1-4.7,1.3c-1.8,0.3-3.6,0.5-5.2,0.5
			c-4.2,0-7.8-1-10.6-2.9c-3.6,3.9-8.9,7-15,8.1c-1.5,0.3-2.9,0.4-4.3,0.4c-4.3,0-8.1-1.2-10.9-3.3c-3.5,3.9-8.6,6.9-14.5,7.8
			c-1.2,0.2-2.3,0.3-3.4,0.3c-4.5,0-8.5-1.4-11.4-3.8c-3.4,3.9-8.4,6.8-14.2,7.4c-0.8,0.1-1.6,0.1-2.4,0.1c-4.8,0-9-1.7-12.1-4.4
			c-3.3,3.8-8.3,6.5-14,6.9c-0.5,0-1,0.1-1.5,0.1c-5.1,0-9.6-1.9-12.8-5c-3.4,3.7-8.3,6.2-14,6.3c-0.2,0-0.3,0-0.5,0
			c-5.5,0-10.3-2.2-13.6-5.7c-3.3,3.5-8.1,5.7-13.6,5.7c-0.2,0-0.3,0-0.5,0c-5.7-0.1-10.7-2.6-14-6.3c-3.2,3.1-7.7,5-12.8,5
			c-0.5,0-1,0-1.5-0.1c-5.7-0.4-10.7-3.1-14-6.9c-3.1,2.7-7.3,4.4-12.1,4.4c-0.8,0-1.6,0-2.5-0.1c-5.8-0.7-10.8-3.5-14.2-7.4
			c-2.9,2.4-6.9,3.8-11.4,3.8c-1.1,0-2.2-0.1-3.4-0.3c-5.9-0.9-11-3.9-14.5-7.8c-2.8,2.1-6.6,3.3-10.9,3.3c-1.4,0-2.8-0.1-4.3-0.4
			C360.3,518,355,515,351.4,511L351.4,511z"/>
	</g>
	<g id="frosting_1_">
		<g id="shadows_2_">
			<path fill="#777777" d="M488.6,547.4c2.5-0.9,4.8-2.5,6.9-4.6c2.1,2.1,4.5,3.7,6.9,4.6c-2.6,41.1-4.7,82.3-6.9,123.4
				C493.3,629.6,491.2,588.5,488.6,547.4z"/>
			<path fill="#777777" d="M514.5,547c2.6-1.1,5-2.9,7.2-5.3c2.1,1.9,4.3,3.2,6.7,3.9c-3.7,41-6.2,82.1-8.1,123.3
				C517.8,628.4,516,587.7,514.5,547z"/>
			<path fill="#777777" d="M540.6,544.7c2.7-1.3,5.3-3.3,7.6-5.9c2,1.6,4.1,2.7,6.4,3.3c-5,40.3-8,80.8-9.6,121.4
				C542.2,624,541,584.4,540.6,544.7z"/>
			<path fill="#777777" d="M567,540.5c2.9-1.5,5.5-3.7,7.9-6.5c1.9,1.3,4,2.3,6.2,2.7c-6.4,38.8-10.1,77.8-11.7,117.1
				C566.7,616.2,566.1,578.4,567,540.5z"/>
			<path fill="#777777" d="M593.7,534.6c3-1.6,5.9-4,8.4-7.1c1.8,1.1,3.8,1.9,5.9,2.2c-7.8,35.9-12.5,72.1-14.7,108.5
				C591.3,603.9,591.6,569.3,593.7,534.6z"/>
			<path fill="#777777" d="M620.9,527.4c3.4-1.8,6.5-4.4,9.4-7.7c1.8,0.9,3.7,1.6,5.7,1.8c0.8,0.1,1.6,0.2,2.3,0.2
				c-12.1,32.2-22.6,65.1-28.1,98.5C610.8,589.3,615.8,558.4,620.9,527.4z"/>
			<path fill="#777777" d="M489.2,547.3c2.5-0.9,4.8-2.5,6.9-4.6c2.1,2.1,4.5,3.7,6.9,4.6c-2.6,41.1-4.7,82.3-6.9,123.4
				C493.9,629.6,491.8,588.5,489.2,547.3z"/>
			<path fill="#777777" d="M463.2,545.7c2.4-0.8,4.6-2.1,6.7-3.9c2.2,2.4,4.6,4.1,7.2,5.3c-1.5,40.7-3.2,81.4-5.8,121.9
				C469.4,627.8,466.9,586.7,463.2,545.7z"/>
			<path fill="#777777" d="M437,542.1c2.3-0.6,4.4-1.7,6.4-3.3c2.3,2.6,4.8,4.6,7.6,5.9c-0.3,39.7-1.6,79.3-4.3,118.7
				C445,622.8,442,582.4,437,542.1z"/>
			<path fill="#777777" d="M410.5,536.7c2.2-0.5,4.2-1.4,6.2-2.7c2.4,2.8,5.1,5,7.9,6.5c0.9,37.9,0.3,75.6-2.3,113.2
				C420.7,614.5,417,575.5,410.5,536.7z"/>
			<path fill="#777777" d="M383.6,529.8c2.1-0.4,4-1.1,5.9-2.2c2.5,3,5.4,5.4,8.4,7c2.2,34.7,2.4,69.3,0.4,103.6
				C396.1,601.9,391.4,565.7,383.6,529.8z"/>
			<path fill="#777777" d="M353.3,521.8c0.8,0,1.6-0.1,2.3-0.2c2-0.3,3.9-0.9,5.7-1.8c2.8,3.3,6,5.9,9.4,7.7
				c5.1,30.9,10.7,61.9,11.2,92.8C376.4,586.8,365.4,554,353.3,521.8z"/>
		</g>
		<g>
			<path fill="#FFFFFF" d="M496.1,508.5c-44.2,0-82.4-6.4-107.7-18.1c-4-1.1-7.8-2.7-11.2-4.7l-0.4-0.3c-0.4-0.2-0.8-0.5-1.2-0.7
				c-0.3-0.2-0.6-0.4-1-0.6c-0.2-0.1-0.4-0.3-0.6-0.4c-0.5-0.3-1-0.7-1.4-1c-7.6-5.7-13-13.2-15.5-21.8c-0.2-0.7-0.4-1.5-0.6-2.5
				l0-0.1c-0.1-0.7-0.3-1.3-0.4-1.9l0-0.2c-0.1-0.7-0.2-1.3-0.3-1.9l0-0.4c-0.1-0.6-0.1-1.1-0.1-1.7c0-0.2,0-0.7,0-0.7
				c0-0.5,0-0.9,0-1.4l0-0.2c0-0.2,0-0.4,0-0.6l0-0.6c0-0.2,0-0.4,0-0.6c0-0.6,0.1-1.1,0.1-1.7l0-0.3c0.7-6.8,3.2-13.4,7.3-19.2
				l0.1-0.1c0.3-0.5,0.7-0.9,1-1.4c0.1-0.2,0.3-0.4,0.4-0.5c0.2-0.3,0.5-0.6,0.7-0.9c0.3-0.3,0.6-0.6,0.8-1l0.4-0.4
				c5.3-5.7,12.1-10.1,19.8-12.7l0.1,0c0.6-0.2,1.3-0.4,1.9-0.6c0.2,0,0.8-0.2,0.8-0.2l0.3-0.1c0.3-0.1,0.5-0.1,0.8-0.2
				c-2.3-9.7-0.8-19.8,4.3-28.7c6.1-10.5,16.7-18.3,29.2-21.3c8-2.7,16.8-6.1,18.4-7c9.9-13.5,22-25.6,35.8-35.9
				c8.8-6.6,18.2-12.3,28.8-17.5c0.5-0.3,1.1-0.4,1.7-0.4c1.4,0,2.7,0.8,3.4,2c0.6,1.1,0.6,2.5,0,3.6c-2.9,4.9-3.5,11.1-1.5,16.3
				c2.3,6.1,7.5,11.2,13.5,13.3c1.4,0.5,4.8,2,6.3,2.6c3.2-0.7,6.6-1.1,9.9-1.1c20.8,0,40.8,14.6,46.5,34l0.8,2.5h-0.2
				c0.1,1,0.2,1.1,0.3,1.6c17,4.2,28.5,14.9,32.6,30.2l0.2,0.6c1.7,4.9,1.7,10.1,0.1,16.4c11.2,8.3,16.9,18.7,16.9,31
				c0,15.4-8.9,28.5-24.4,36.1C588.9,500.7,546.5,508.5,496.1,508.5z"/>
			<path fill="#FFFFFF" d="M508.1,299.9c1.2,0,2.3,1.4,1.6,2.5c-3.2,5.4-3.9,12.1-1.7,18.1c2.4,6.4,7.9,12.2,14.8,14.5
				c1.6,0.6,6.7,2.8,6.7,2.8c3.4-0.8,6.8-1.3,10.1-1.3c20.2,0,39.1,14.6,44.6,32.6h0c0.5,2,0.8,3.4,1.1,5.1
				c15.3,3.5,28.1,12.9,32.4,28.9h-0.1c2,6,1.8,11,0,17.5c10.6,7.4,17.1,17.3,17.2,30.3c0,15.4-9.4,27.5-23.4,34.3
				c-23.7,13.8-65.8,21.2-115.3,21.2c-43.9,0-82.3-6.5-107-18c-3.9-1.1-7.6-2.6-10.9-4.6c-0.1-0.1-0.3-0.2-0.4-0.2
				c-0.4-0.2-0.7-0.4-1.1-0.7c-0.3-0.2-0.6-0.4-0.9-0.6c-0.2-0.1-0.4-0.3-0.6-0.4c-0.5-0.3-0.9-0.7-1.4-1c0,0,0,0-0.1,0
				c-7-5.2-12.3-12.3-14.8-20.7l0,0c-0.2-0.8-0.4-1.6-0.6-2.3c0-0.1,0-0.1,0-0.2c-0.1-0.6-0.3-1.2-0.4-1.8c0-0.1,0-0.2,0-0.3
				c-0.1-0.6-0.2-1.2-0.2-1.8c0-0.1,0-0.3,0-0.4c-0.1-0.5-0.1-1.1-0.1-1.6c0-0.2,0-0.4,0-0.7c0-0.4,0-0.9,0-1.3c0-0.1,0-0.1,0-0.2v0
				c0-0.3,0-0.6,0-0.9c0-0.3,0-0.6,0-0.8c0-0.5,0.1-1.1,0.1-1.6c0-0.1,0-0.2,0-0.3c0.7-6.7,3.1-12.9,6.9-18.2c0,0,0-0.1,0.1-0.1
				c0.3-0.4,0.6-0.9,1-1.3c0.1-0.2,0.3-0.3,0.4-0.5c0.2-0.3,0.5-0.6,0.7-0.8c0.3-0.3,0.5-0.6,0.8-0.9c0.1-0.1,0.2-0.3,0.3-0.4
				c4.9-5.4,11.3-9.6,18.9-12.1c0,0,0.1,0,0.1,0c0.6-0.2,1.2-0.4,1.9-0.6c0.2-0.1,0.5-0.1,0.7-0.2c0.4-0.1,0.7-0.2,1.1-0.3l2-0.5
				c-6.3-21.5,7.9-43.8,31.6-49.6c0,0,18.4-6.3,19.3-7.6c7.6-10.4,19-23.4,35.5-35.7c10-7.5,19.8-13,28.4-17.3
				C507.6,300,507.8,299.9,508.1,299.9 M508.1,295.9c-0.9,0-1.7,0.2-2.5,0.6c-10.7,5.2-20.2,11-29.1,17.7
				c-13.9,10.3-25.9,22.4-35.9,35.9c-2.2,1.1-10.5,4.2-17.6,6.6c-13,3.2-24,11.3-30.3,22.2c-5,8.8-6.8,18.6-5,28.3c0,0,0,0-0.1,0
				c-0.6,0.2-1.3,0.4-2,0.6l-0.1,0c-8,2.6-15.1,7.2-20.6,13.2c-0.1,0.1-0.2,0.3-0.4,0.4c-0.3,0.3-0.6,0.7-0.9,1
				c-0.2,0.3-0.5,0.6-0.8,0.9c-0.2,0.2-0.3,0.4-0.5,0.6c-0.4,0.5-0.7,0.9-1.1,1.4l-0.1,0.1c-4.3,6-7.2,13-7.9,20.1
				c0,0.1-0.3,0.1-0.3,0.2v0l0.2,0.1c-0.1,0.7,0,1.3,0,1.8c0,0.2,0,0.5,0,0.7l0,0.2l0,0.3c0,0.2,0,0.5,0,0.7c0,0.1,0,0.2,0,0.3
				c0,0.5,0,0.9,0,1.4l0,0.2c0,0.2,0,0.3,0,0.5c0,0.7,0.1,1.3,0.2,1.8l0,0.1c0,0.1,0,0.2,0,0.3c0.1,0.6,0.2,1.2,0.3,1.9
				c0,0.1,0,0.2,0,0.3c0.1,0.6,0.2,1.3,0.4,2c0,0,0,0.1,0,0.2c0.2,0.9,0.4,1.8,0.7,2.6c2.7,9,8.3,16.9,16.2,22.8l0,0l0.1,0
				c0.5,0.4,1,0.7,1.5,1.1c0.2,0.1,0.4,0.3,0.6,0.4c0.3,0.2,0.7,0.4,1,0.7c0.4,0.2,0.8,0.5,1.2,0.7c0.2,0.1,0.3,0.2,0.5,0.3
				c3.6,2.1,7.4,3.7,11.5,4.9c25.5,11.8,64,18.2,108.4,18.2c50.7,0,93.4-7.9,117.2-21.7c16.2-7.9,25.5-21.7,25.5-37.8
				c0-12.6-5.6-23.5-16.6-32c1-4.3,1.2-7.9,0.6-11.9h0.1l-0.3-1c-0.2-1.1-0.5-2.1-0.9-3.2l-0.2-0.5c-4.2-15.6-15.7-26.5-32.6-31.2
				l-0.9-3.1c-2.9-9.8-9.4-18.8-18.2-25.4c-8.9-6.6-19.6-10.2-30.2-10.2c-3.3,0-6.5,0.3-9.7,1c-1.7-0.7-4.6-1.9-5.8-2.4
				c-5.5-1.9-10.2-6.5-12.3-12.1c-1.8-4.7-1.2-10.2,1.4-14.6c1-1.7,1-3.8,0-5.6C512.1,297.1,510.2,295.9,508.1,295.9L508.1,295.9z"
				/>
		</g>
		<g>
			<path fill="#EF8EE8" d="M443.4,362c0,0,64.2,10.9,86.2-17.9c5.3-2.9,29.8,6.8,31.8,12.1C548.7,365.2,500.1,401.5,443.4,362z"/>
			<path fill="#EF8EE8" d="M392.5,410.2c9.9,6.6,209.5,11.8,192.8-41.1c10.8,0.6,30.2,16.6,29.1,20.5
				C587.8,463.3,389.5,418.3,392.5,410.2z"/>
			<path fill="#EF8EE8" d="M361.1,465.8c37.8,7.6,240.7,8.6,256.6-47.7c5.5,4.5,17.8,17.9,17.2,31.5
				C625.2,495.1,374.2,486.3,361.1,465.8z"/>
			<path fill="#EF8EE8" d="M514.5,330c0,0-37.5-1.7-4.8-27.6c15.2-12.1-50.4,16.8-52.2,33.8C483.9,345.3,493.5,343.5,514.5,330z"/>
		</g>
	</g>
</g>
</svg>
