<?xml version="1.0" encoding="utf-8"?>
<!-- Generator: Adobe Illustrator 18.1.0, SVG Export Plug-In . SVG Version: 6.00 Build 0)  -->
<!DOCTYPE svg PUBLIC "-//W3C//DTD SVG 1.1//EN" "http://www.w3.org/Graphics/SVG/1.1/DTD/svg11.dtd">
<svg version="1.1" id="Layer_1" xmlns="http://www.w3.org/2000/svg" xmlns:xlink="http://www.w3.org/1999/xlink" x="0px" y="0px"
	 viewBox="0 0 302.2 396" enable-background="new 0 0 302.2 396" xml:space="preserve">
<g id="cupcake_1_">
	
		<ellipse id="cake_1_" fill="#DDBE3A" stroke="#FFFFFF" stroke-width="4" stroke-miterlimit="10" cx="151.1" cy="204.7" rx="148.2" ry="27.2"/>
	<g id="frosting_1_">
		<g id="shadows_2_">
			<path fill="#777777" d="M143.6,251.4c2.5-0.9,4.8-2.5,6.9-4.6c2.1,2.1,4.5,3.7,6.9,4.6c-2.6,41.1-4.7,82.3-6.9,123.4
				C148.3,333.7,146.2,292.5,143.6,251.4z"/>
			<path fill="#777777" d="M169.5,251.1c2.6-1.1,5-2.9,7.2-5.3c2.1,1.9,4.3,3.2,6.7,3.9c-3.7,41-6.2,82.1-8.1,123.3
				C172.8,332.4,171,291.8,169.5,251.1z"/>
			<path fill="#777777" d="M195.6,248.8c2.7-1.3,5.3-3.3,7.6-5.9c2,1.6,4.1,2.7,6.4,3.3c-5,40.3-8,80.8-9.6,121.4
				C197.2,328,196,288.4,195.6,248.8z"/>
			<path fill="#777777" d="M222,244.5c2.9-1.5,5.5-3.7,7.9-6.5c1.9,1.3,4,2.3,6.2,2.7c-6.4,38.8-10.1,77.8-11.7,117.1
				C221.7,320.2,221.1,282.5,222,244.5z"/>
			<path fill="#777777" d="M248.7,238.6c3-1.6,5.9-4,8.4-7.1c1.8,1.1,3.8,1.9,5.9,2.2c-7.8,35.9-12.5,72.1-14.7,108.5
				C246.3,307.9,246.6,273.4,248.7,238.6z"/>
			<path fill="#777777" d="M275.9,231.4c3.4-1.8,6.5-4.4,9.4-7.7c1.8,0.9,3.7,1.6,5.7,1.8c0.8,0.1,1.6,0.2,2.3,0.2
				c-12.1,32.2-22.6,65.1-28.1,98.5C265.8,293.4,270.8,262.4,275.9,231.4z"/>
			<path fill="#777777" d="M144.2,251.4c2.5-0.9,4.8-2.5,6.9-4.6c2.1,2.1,4.5,3.7,6.9,4.6c-2.6,41.1-4.7,82.3-6.9,123.4
				C148.9,333.7,146.8,292.5,144.2,251.4z"/>
			<path fill="#777777" d="M118.2,249.8c2.4-0.8,4.6-2.1,6.7-3.9c2.2,2.4,4.6,4.1,7.2,5.3c-1.5,40.7-3.2,81.4-5.8,121.9
				C124.4,331.9,121.9,290.8,118.2,249.8z"/>
			<path fill="#777777" d="M92,246.2c2.3-0.6,4.4-1.7,6.4-3.3c2.3,2.6,4.8,4.6,7.6,5.9c-0.3,39.7-1.6,79.3-4.3,118.7
				C100,326.9,97,286.5,92,246.2z"/>
			<path fill="#777777" d="M65.5,240.8c2.2-0.5,4.2-1.4,6.2-2.7c2.4,2.8,5.1,5,7.9,6.5c0.9,37.9,0.3,75.6-2.3,113.2
				C75.7,318.6,72,279.6,65.5,240.8z"/>
			<path fill="#777777" d="M38.6,233.9c2.1-0.4,4-1.1,5.9-2.2c2.5,3,5.4,5.4,8.4,7c2.2,34.7,2.4,69.3,0.4,103.6
				C51.1,305.9,46.4,269.8,38.6,233.9z"/>
			<path fill="#777777" d="M8.3,225.9c0.8,0,1.6-0.1,2.3-0.2c2-0.3,3.9-0.9,5.7-1.8c2.8,3.3,6,5.9,9.4,7.7
				c5.1,30.9,10.7,61.9,11.2,92.8C31.4,290.9,20.4,258,8.3,225.9z"/>
		</g>
		<g>
			<path fill="#FFFFFF" d="M151.1,212.5c-44.2,0-82.5-6.4-107.7-18.1c-4-1.1-7.8-2.7-11.2-4.7l-0.4-0.3c-0.4-0.2-0.8-0.5-1.2-0.7
				c-0.3-0.2-0.6-0.4-1-0.6c-0.2-0.1-0.4-0.3-0.6-0.4c-0.5-0.3-1-0.7-1.4-1c-7.6-5.7-13-13.2-15.5-21.8c-0.2-0.7-0.4-1.5-0.6-2.5
				l0-0.1c-0.1-0.7-0.3-1.3-0.4-1.9l0-0.2c-0.1-0.7-0.2-1.3-0.3-1.9l0-0.4c-0.1-0.6-0.1-1.1-0.1-1.7c0-0.2,0-0.7,0-0.7
				c0-0.5,0-0.9,0-1.4l0-0.2c0-0.2,0-0.4,0-0.6l0-0.6c0-0.2,0-0.4,0-0.6c0-0.6,0.1-1.1,0.1-1.7l0-0.3c0.7-6.8,3.2-13.4,7.3-19.2
				l0.1-0.1c0.3-0.5,0.7-0.9,1-1.4c0.1-0.2,0.3-0.4,0.4-0.5c0.2-0.3,0.5-0.6,0.7-0.9c0.3-0.3,0.6-0.6,0.8-1l0.4-0.4
				c5.3-5.7,12.1-10.1,19.8-12.7l0.1,0c0.6-0.2,1.3-0.4,1.9-0.6c0.2,0,1.1-0.3,1.1-0.3c0.3-0.1,0.5-0.1,0.8-0.2
				c-2.3-9.7-0.8-19.8,4.3-28.7C55.4,73.6,66,65.8,78.5,62.8c8-2.7,16.8-6.1,18.4-7c9.9-13.5,22-25.6,35.8-35.9
				c8.8-6.6,18.2-12.3,28.8-17.5c0.5-0.3,1.1-0.4,1.7-0.4c1.4,0,2.7,0.8,3.4,2c0.6,1.1,0.6,2.5,0,3.6c-2.9,4.9-3.5,11.1-1.5,16.3
				c2.3,6.1,7.5,11.2,13.5,13.3c1.4,0.5,4.8,2,6.3,2.6c3.2-0.7,6.6-1.1,9.9-1.1c20.8,0,40.8,14.5,46.5,34l0.8,2.5h-0.2
				c0.1,1,0.2,1.1,0.3,1.6c17,4.2,28.5,15,32.6,30.2l0.2,0.7c1.7,4.9,1.7,10.1,0.1,16.4c11.2,8.3,16.9,18.7,16.9,31
				c0,15.4-8.9,28.5-24.4,36.1C243.9,204.7,201.5,212.5,151.1,212.5z"/>
			<path fill="#FFFFFF" d="M163.1,4c1.2,0,2.3,1.4,1.6,2.5c-3.2,5.4-3.9,12.1-1.7,18.1c2.4,6.4,7.9,12.2,14.8,14.5
				c1.6,0.6,6.7,2.8,6.7,2.8c3.4-0.8,6.8-1.3,10.1-1.3c20.2,0,39.1,14.5,44.6,32.5h0c0.5,2,0.8,3.4,1.1,5.1
				c15.3,3.5,28.1,12.9,32.4,28.9h-0.1c2,6,1.8,11.1,0,17.6c10.6,7.4,17.1,17.3,17.2,30.3c0,15.4-9.4,27.6-23.4,34.3
				c-23.7,13.8-65.8,21.2-115.3,21.2c-43.9,0-82.3-6.5-107-18c-3.9-1.1-7.6-2.6-10.9-4.6c-0.1-0.1-0.3-0.2-0.4-0.2
				c-0.4-0.2-0.7-0.4-1.1-0.7c-0.3-0.2-0.6-0.4-0.9-0.6c-0.2-0.1-0.4-0.3-0.6-0.4c-0.5-0.3-0.9-0.7-1.4-1c0,0,0,0-0.1,0
				c-7-5.2-12.3-12.3-14.8-20.7l0,0c-0.2-0.8-0.4-1.6-0.6-2.3c0-0.1,0-0.1,0-0.2c-0.1-0.6-0.3-1.2-0.4-1.8c0-0.1,0-0.2,0-0.3
				c-0.1-0.6-0.2-1.2-0.2-1.8c0-0.1,0-0.3,0-0.4c-0.1-0.5-0.1-1.1-0.1-1.6c0-0.2,0-0.4,0-0.7c0-0.4,0-0.9,0-1.3c0-0.1,0-0.1,0-0.2v0
				c0-0.3,0-0.6,0-0.9c0-0.3,0-0.6,0-0.8c0-0.5,0.1-1.1,0.1-1.6c0-0.1,0-0.2,0-0.3c0.7-6.7,3.1-12.9,6.9-18.2c0,0,0-0.1,0.1-0.1
				c0.3-0.4,0.6-0.9,1-1.3c0.1-0.2,0.3-0.3,0.4-0.5c0.2-0.3,0.5-0.6,0.7-0.8c0.3-0.3,0.5-0.6,0.8-0.9c0.1-0.1,0.2-0.3,0.3-0.4
				c4.9-5.4,11.3-9.6,18.9-12.1c0,0,0.1,0,0.1,0c0.6-0.2,1.2-0.4,1.9-0.6c0.2-0.1,0.5-0.1,0.7-0.2c0.4-0.1,0.7-0.2,1.1-0.3l2-0.5
				c-6.3-21.5,7.9-43.8,31.6-49.6c0,0,18.4-6.3,19.3-7.6c7.6-10.4,19-23.4,35.5-35.7c10-7.5,19.8-13,28.4-17.3
				C162.6,4.1,162.8,4,163.1,4 M163.1,0c-0.9,0-1.7,0.2-2.5,0.6c-10.7,5.2-20.2,11-29.1,17.7c-13.9,10.3-25.9,22.4-35.9,35.9
				c-2.2,1.1-10.5,4.2-17.6,6.6c-13,3.2-24,11.3-30.3,22.2c-5,8.8-6.8,18.6-5,28.3c0,0,0,0-0.1,0c-0.6,0.2-1.3,0.4-2,0.6l-0.1,0
				c-8,2.6-15.1,7.2-20.6,13.2c-0.1,0.1-0.2,0.3-0.4,0.4c-0.3,0.3-0.6,0.7-0.9,1c-0.2,0.3-0.5,0.6-0.8,0.9c-0.2,0.2-0.3,0.4-0.4,0.6
				c-0.4,0.5-0.7,0.9-1.1,1.4l-0.1,0.1c-4.3,6-6.7,13-7.4,20.1c0,0.1,0.2,0.1,0.2,0.2v0l-0.2,0.1c-0.1,0.7-0.2,1.3-0.2,1.8
				c0,0.2-0.1,0.5-0.1,0.7l0,0.2l0,0.3c0,0.2,0,0.5,0,0.7c0,0.1,0,0.2,0,0.3c0,0.5,0,0.9,0,1.4l0,0.2c0,0.2,0,0.3,0,0.5
				c0,0.7,0.1,1.3,0.2,1.8l0,0.1c0,0.1,0,0.2,0,0.3c0.1,0.6,0.2,1.2,0.3,1.9c0,0.1,0,0.2,0,0.3c0.1,0.6,0.2,1.3,0.4,2
				c0,0,0,0.1,0,0.2c0.2,0.9,0.4,1.8,0.7,2.6c2.7,9,8.3,16.9,16.2,22.8l0.1,0c0.5,0.4,1,0.7,1.5,1.1c0.2,0.1,0.4,0.3,0.6,0.4
				c0.3,0.2,0.7,0.4,1,0.7c0.4,0.2,0.8,0.5,1.2,0.7c0.2,0.1,0.3,0.2,0.5,0.3c3.6,2.1,7.4,3.7,11.5,4.9c25.5,11.8,64,18.2,108.4,18.2
				c50.7,0,93.4-7.9,117.2-21.7c16.2-7.9,25.5-21.7,25.5-37.8c0-12.6-5.6-23.5-16.6-32c1-4.3,1.2-7.9,0.6-11.9h0.1l-0.3-1
				c-0.2-1.1-0.5-2.1-0.9-3.2l-0.2-0.5c-4.2-15.6-15.7-26.5-32.6-31.2l-0.9-3.1c-2.9-9.8-9.4-18.8-18.2-25.4
				c-8.9-6.6-19.6-10.2-30.2-10.2c-3.3,0-6.5,0.3-9.7,1c-1.7-0.7-4.6-1.9-5.8-2.4c-5.5-1.9-10.2-6.5-12.3-12.1
				c-1.8-4.7-1.2-10.2,1.4-14.6c1-1.7,1-3.8,0-5.6C167.1,1.1,165.2,0,163.1,0L163.1,0z"/>
		</g>
		<g>
			<path fill="#EF8EE8" d="M98.4,66.1c0,0,64.2,10.9,86.2-17.9c5.3-2.9,29.8,6.8,31.8,12.1C203.7,69.2,155.1,105.6,98.4,66.1z"/>
			<path fill="#EF8EE8" d="M47.5,114.2c9.9,6.6,209.5,11.8,192.8-41.1c10.8,0.6,30.2,16.6,29.1,20.5
				C242.8,167.3,44.5,122.4,47.5,114.2z"/>
			<path fill="#EF8EE8" d="M16.1,169.9c37.8,7.6,240.7,8.6,256.6-47.7c5.5,4.5,17.8,17.9,17.2,31.5
				C280.2,199.1,29.2,190.4,16.1,169.9z"/>
			<path fill="#EF8EE8" d="M169.5,34.1c0,0-37.5-1.7-4.8-27.6c15.2-12.1-50.4,16.8-52.2,33.8C138.9,49.4,148.5,47.5,169.5,34.1z"/>
		</g>
	</g>
</g>
</svg>
