<?xml version="1.0" encoding="utf-8"?>
<!-- Generator: Adobe Illustrator 18.1.1, SVG Export Plug-In . SVG Version: 6.00 Build 0)  -->
<!DOCTYPE svg PUBLIC "-//W3C//DTD SVG 1.1//EN" "http://www.w3.org/Graphics/SVG/1.1/DTD/svg11.dtd">
<svg version="1.1" id="main" xmlns="http://www.w3.org/2000/svg" xmlns:xlink="http://www.w3.org/1999/xlink" x="0px" y="0px"
	 viewBox="0 0 1024 1000" enable-background="new 0 0 1024 1000" xml:space="preserve">
<g id="ring">
	<g id="outer">
		<path fill="#FFFFFF" d="M1008.5,500c0,9.3-8.3,18.2-8.8,27.4c-0.5,9.3,6.8,19,5.7,28.2c-1,9.2-10.3,17.2-11.8,26.2
			c-1.5,9.2,4.5,19.8,2.5,28.6c-2,9-12.2,15.9-14.7,24.8c-2.5,8.9,2.3,20.1-0.7,28.7s-13.9,14.4-17.4,23s0,20.3-3.9,28.5
			c-4,8.3-15.4,12.8-19.9,20.9s-2.2,20.1-7.2,27.9c-4.9,7.8-16.7,11-22.1,18.4c-5.3,7.6-4.4,19.8-10.2,26.9
			c-5.7,7.2-17.8,9.1-24,15.9c-6.1,6.9-6.7,19-13.1,25.6c-6.6,6.6-18.7,7-25.6,13.1c-6.9,6.1-8.7,18.2-15.9,24
			c-7.2,5.7-19.4,4.8-26.9,10.2c-7.5,5.3-10.7,17.1-18.4,22.1c-7.8,4.9-19.9,2.6-27.9,7.2c-8.1,4.4-12.5,15.8-20.9,19.9
			c-8.3,4-20,0.4-28.5,3.9c-8.5,3.5-14.2,14.3-23,17.4c-8.7,3-19.9-1.8-28.7,0.7c-8.9,2.5-15.7,12.6-24.8,14.7
			c-9,2-19.6-4.1-28.6-2.5c-9.1,1.5-17,10.8-26.2,11.8c-9.1,1-18.9-6.2-28.2-5.7c-9.2,0.5-18.1,8.8-27.4,8.8
			c-9.3,0-18.2-8.3-27.4-8.8c-9.3-0.5-19,6.8-28.2,5.7c-9.2-1-17.2-10.3-26.2-11.8c-9.2-1.5-19.8,4.5-28.6,2.5
			c-9-2-15.9-12.2-24.8-14.7c-8.9-2.5-20.1,2.3-28.7-0.7c-8.7-3-14.4-13.9-23-17.4c-8.6-3.5-20.3,0-28.5-3.9
			c-8.3-4-12.8-15.4-20.9-19.9s-20.1-2.2-27.9-7.2c-7.8-4.9-11-16.7-18.4-22.1c-7.6-5.3-19.8-4.4-26.9-10.2
			c-7.2-5.7-9.1-17.8-15.9-24c-6.9-6.1-19-6.7-25.6-13.1c-6.6-6.6-7-18.7-13.1-25.6c-6.1-6.9-18.2-8.7-24-15.9
			c-5.7-7.2-4.8-19.4-10.2-26.9c-5.3-7.5-17.1-10.7-22.1-18.4c-4.9-7.8-2.6-19.9-7.2-27.9c-4.4-8.1-15.8-12.5-19.9-20.9
			c-4-8.3-0.4-20-3.9-28.5c-3.5-8.5-14.3-14.2-17.4-23c-3-8.7,1.8-19.9-0.7-28.7c-2.5-8.9-12.6-15.7-14.7-24.8
			c-2-9,4.1-19.6,2.5-28.6c-1.5-9.1-10.8-17-11.8-26.2c-1-9.1,6.2-18.9,5.7-28.2c-0.5-9.2-8.8-18.1-8.8-27.4s8.3-18.2,8.8-27.4
			c0.5-9.3-6.8-19-5.7-28.2c1-9.2,10.3-17.2,11.8-26.2c1.5-9.2-4.5-19.8-2.5-28.6c2-9,12.2-15.9,14.7-24.8
			c2.5-8.9-2.3-20.1,0.7-28.7s13.9-14.4,17.4-23c3.5-8.6,0-20.3,3.9-28.5c4-8.3,15.4-12.8,19.9-20.9c4.4-8.1,2.2-20.1,7.2-27.9
			c4.9-7.8,16.7-11,22.1-18.4c5.3-7.6,4.4-19.8,10.2-26.9c5.7-7.2,17.8-9.1,24-15.9c6.1-6.9,6.7-19,13.1-25.6
			c6.6-6.6,18.7-7,25.6-13.1c6.9-6.1,8.7-18.2,15.9-24c7.2-5.7,19.4-4.8,26.9-10.2c7.5-5.3,10.7-17.1,18.4-22.1s19.9-2.6,27.9-7.2
			c8.1-4.4,12.5-15.8,20.9-19.9c8.3-4,20-0.4,28.5-3.9c8.6-3.4,14.3-14.3,23.1-17.3c8.7-3,19.9,1.8,28.7-0.7
			c8.9-2.5,15.7-12.6,24.8-14.7c9-2,19.6,4.1,28.6,2.5c9.1-1.5,17-10.8,26.2-11.8c9.1-1,18.9,6.2,28.2,5.7
			c9.2-0.5,18.1-8.8,27.4-8.8s18.2,8.3,27.4,8.8c9.3,0.5,19-6.8,28.2-5.7s17.2,10.3,26.2,11.8c9.2,1.5,19.8-4.5,28.6-2.5
			c9,2,15.9,12.2,24.8,14.7c8.9,2.5,20.1-2.3,28.7,0.7c8.7,3,14.4,13.9,23,17.4c8.6,3.5,20.3,0,28.5,3.9c8.3,4,12.8,15.4,20.9,19.9
			s20.1,2.2,27.9,7.2c7.8,4.9,11,16.7,18.4,22.1c7.6,5.3,19.8,4.4,26.9,10.2c7.2,5.7,9.1,17.8,15.9,24c6.9,6.1,19,6.7,25.6,13.1
			c6.6,6.6,7,18.7,13.1,25.6c6.1,6.9,18.2,8.7,24,15.9c5.7,7.2,4.8,19.4,10.2,26.9c5.3,7.5,17.1,10.7,22.1,18.4
			c4.9,7.8,2.6,19.9,7.2,27.9c4.4,8.1,15.8,12.5,19.9,20.9c4,8.3,0.4,20,3.9,28.5c3.5,8.5,14.3,14.2,17.4,23
			c3,8.7-1.8,19.9,0.7,28.7s12.6,15.7,14.7,24.8c2,9-4.1,19.6-2.5,28.6c1.5,9.1,10.8,17,11.8,26.2c1,9.1-6.2,18.9-5.7,28.2
			C1000.2,481.8,1008.5,490.7,1008.5,500z"/>
		<path fill="none" stroke="#E2E2E2" stroke-width="7" stroke-miterlimit="10" d="M1008.5,500c0,9.3-8.3,18.2-8.8,27.4
			c-0.5,9.3,6.8,19,5.7,28.2c-1,9.2-10.3,17.2-11.8,26.2c-1.5,9.2,4.5,19.8,2.5,28.6c-2,9-12.2,15.9-14.7,24.8
			c-2.5,8.9,2.3,20.1-0.7,28.7s-13.9,14.4-17.4,23s0,20.3-3.9,28.5c-4,8.3-15.4,12.8-19.9,20.9s-2.2,20.1-7.2,27.9
			c-4.9,7.8-16.7,11-22.1,18.4c-5.3,7.6-4.4,19.8-10.2,26.9c-5.7,7.2-17.8,9.1-24,15.9c-6.1,6.9-6.7,19-13.1,25.6
			c-6.6,6.6-18.7,7-25.6,13.1c-6.9,6.1-8.7,18.2-15.9,24c-7.2,5.7-19.4,4.8-26.9,10.2c-7.5,5.3-10.7,17.1-18.4,22.1
			c-7.8,4.9-19.9,2.6-27.9,7.2c-8.1,4.4-12.5,15.8-20.9,19.9c-8.3,4-20,0.4-28.5,3.9c-8.5,3.5-14.2,14.3-23,17.4
			c-8.7,3-19.9-1.8-28.7,0.7c-8.9,2.5-15.7,12.6-24.8,14.7c-9,2-19.6-4.1-28.6-2.5c-9.1,1.5-17,10.8-26.2,11.8
			c-9.1,1-18.9-6.2-28.2-5.7c-9.2,0.5-18.1,8.8-27.4,8.8c-9.3,0-18.2-8.3-27.4-8.8c-9.3-0.5-19,6.8-28.2,5.7
			c-9.2-1-17.2-10.3-26.2-11.8c-9.2-1.5-19.8,4.5-28.6,2.5c-9-2-15.9-12.2-24.8-14.7c-8.9-2.5-20.1,2.3-28.7-0.7
			c-8.7-3-14.4-13.9-23-17.4c-8.6-3.5-20.3,0-28.5-3.9c-8.3-4-12.8-15.4-20.9-19.9s-20.1-2.2-27.9-7.2c-7.8-4.9-11-16.7-18.4-22.1
			c-7.6-5.3-19.8-4.4-26.9-10.2c-7.2-5.7-9.1-17.8-15.9-24c-6.9-6.1-19-6.7-25.6-13.1c-6.6-6.6-7-18.7-13.1-25.6
			c-6.1-6.9-18.2-8.7-24-15.9c-5.7-7.2-4.8-19.4-10.2-26.9c-5.3-7.5-17.1-10.7-22.1-18.4c-4.9-7.8-2.6-19.9-7.2-27.9
			c-4.4-8.1-15.8-12.5-19.9-20.9c-4-8.3-0.4-20-3.9-28.5c-3.5-8.5-14.3-14.2-17.4-23c-3-8.7,1.8-19.9-0.7-28.7
			c-2.5-8.9-12.6-15.7-14.7-24.8c-2-9,4.1-19.6,2.5-28.6c-1.5-9.1-10.8-17-11.8-26.2c-1-9.1,6.2-18.9,5.7-28.2
			c-0.5-9.2-8.8-18.1-8.8-27.4s8.3-18.2,8.8-27.4c0.5-9.3-6.8-19-5.7-28.2c1-9.2,10.3-17.2,11.8-26.2c1.5-9.2-4.5-19.8-2.5-28.6
			c2-9,12.2-15.9,14.7-24.8c2.5-8.9-2.3-20.1,0.7-28.7s13.9-14.4,17.4-23c3.5-8.6,0-20.3,3.9-28.5c4-8.3,15.4-12.8,19.9-20.9
			c4.4-8.1,2.2-20.1,7.2-27.9c4.9-7.8,16.7-11,22.1-18.4c5.3-7.6,4.4-19.8,10.2-26.9c5.7-7.2,17.8-9.1,24-15.9
			c6.1-6.9,6.7-19,13.1-25.6c6.6-6.6,18.7-7,25.6-13.1c6.9-6.1,8.7-18.2,15.9-24c7.2-5.7,19.4-4.8,26.9-10.2
			c7.5-5.3,10.7-17.1,18.4-22.1s19.9-2.6,27.9-7.2c8.1-4.4,12.5-15.8,20.9-19.9c8.3-4,20-0.4,28.5-3.9c8.6-3.4,14.3-14.3,23.1-17.3
			c8.7-3,19.9,1.8,28.7-0.7c8.9-2.5,15.7-12.6,24.8-14.7c9-2,19.6,4.1,28.6,2.5c9.1-1.5,17-10.8,26.2-11.8c9.1-1,18.9,6.2,28.2,5.7
			c9.2-0.5,18.1-8.8,27.4-8.8s18.2,8.3,27.4,8.8c9.3,0.5,19-6.8,28.2-5.7s17.2,10.3,26.2,11.8c9.2,1.5,19.8-4.5,28.6-2.5
			c9,2,15.9,12.2,24.8,14.7c8.9,2.5,20.1-2.3,28.7,0.7c8.7,3,14.4,13.9,23,17.4c8.6,3.5,20.3,0,28.5,3.9c8.3,4,12.8,15.4,20.9,19.9
			s20.1,2.2,27.9,7.2c7.8,4.9,11,16.7,18.4,22.1c7.6,5.3,19.8,4.4,26.9,10.2c7.2,5.7,9.1,17.8,15.9,24c6.9,6.1,19,6.7,25.6,13.1
			c6.6,6.6,7,18.7,13.1,25.6c6.1,6.9,18.2,8.7,24,15.9c5.7,7.2,4.8,19.4,10.2,26.9c5.3,7.5,17.1,10.7,22.1,18.4
			c4.9,7.8,2.6,19.9,7.2,27.9c4.4,8.1,15.8,12.5,19.9,20.9c4,8.3,0.4,20,3.9,28.5c3.5,8.5,14.3,14.2,17.4,23
			c3,8.7-1.8,19.9,0.7,28.7s12.6,15.7,14.7,24.8c2,9-4.1,19.6-2.5,28.6c1.5,9.1,10.8,17,11.8,26.2c1,9.1-6.2,18.9-5.7,28.2
			C1000.2,481.8,1008.5,490.7,1008.5,500z"/>
	</g>
	
		<circle id="inner" fill="#FFFFFF" stroke="#E2E2E2" stroke-width="2" stroke-miterlimit="10" stroke-dasharray="28" cx="512" cy="500" r="459.1"/>
</g>
<g id="words">
	<line id="line-through" fill="none" stroke="#A09F9F" stroke-miterlimit="10" x1="196.5" y1="505.5" x2="824.4" y2="505.5"/>
	<g enable-background="new    ">
		<path fill="#4F4F4F" d="M216.2,774.4c-11.1-9.5-14.3-21.2-14.3-33.3c0-7.7,2.6-21.8,14.1-31.4c9.8-8.3,21.1-11.7,37.5-11.7
			c6.5,0,11.7,0.7,16.1,1.4c5.1,0.8,7.8,1.4,11.2,1.5c1.2,0.1,1.2,0.8,1.2,1.5c0,0.9-0.3,3.6-0.6,7.5c-0.2,3.7-0.1,10.4-0.3,13.3
			c-0.1,1.7-0.3,2.7-1.4,2.7c-0.9,0-1.2-0.8-1.4-2.4c-0.1-2.5-0.6-7-4.3-11.1c-4-4.2-11.9-7.1-22.9-7.1c-6.7,0-12.2,1.6-16.7,5.4
			c-6.9,6-10,16.6-10,28.7c0,23.4,12.7,39,31.7,39c9.3,0,15.1-0.8,19.5-5.8c1.6-1.7,2.8-4.2,3.7-7.6c0.6-2.4,0.9-3.2,1.8-3.2
			c0.8,0,0.9,1.1,0.9,2c0,1.9-1.4,11.8-2.5,17.2c-0.2,1.7-1,2.6-2.9,3.3c-4.5,1.8-12.2,2.6-19.5,2.6
			C242.6,786.9,228.1,784.4,216.2,774.4z"/>
	</g>
	<g enable-background="new    ">
		<path fill="#4F4F4F" d="M302.3,745.9c0-13.2-0.1-14.4-0.3-17.2c-0.2-3.6-1.8-4.8-3.6-5c-1.6-0.3-2.3-0.3-3-0.4
			c-1.1,0-1.5-0.5-1.5-1c0-0.5,0.3-1,1.8-1c3.5,0,12.5,0.3,13.5,0.3c1.5,0,10.6-0.3,15-0.3c8.8,0,14.8,0.9,18.3,2.8
			c4.7,2.3,8.3,6.5,8.3,13.2s-4.5,12-11.6,16.6c4.6,7,10.8,16.3,16.2,22.2c4.5,5.2,6.5,6.4,9.3,6.8c0.9,0.2,1.7,0.2,2.3,0.3
			c0.9,0.1,1.4,0.6,1.4,1.1c0,0.8-1,0.9-1.8,0.9H359c-10.1,0-14.3-1-17.5-3c-2.5-1.7-5.3-5.1-8.4-10.1c-4.1-6.8-5.6-9.6-7.2-12.2
			c-0.1-0.3-0.5-0.5-1-0.5l-5.8-0.1c-0.4,0-0.7,0.2-0.7,0.7v5.2c0,6.3,0.2,10.4,0.4,13c0.2,2.1,0.7,3.9,3.3,4.6
			c1.2,0.4,2.9,0.5,4,0.6c1.6,0.1,1.6,0.6,1.6,1.1s-0.4,0.9-1.7,0.9c-5.9,0-16.3-0.3-16.8-0.3c-1,0-10.1,0.3-13,0.3
			c-1.5,0-1.8-0.5-1.8-1.1c0-0.5,0.6-0.9,1.6-0.9c0.8-0.1,2-0.1,3-0.3c1.8-0.4,2.5-1.9,2.7-4.9c0.4-3.5,0.5-9.2,0.5-17.4V745.9z
			 M318.4,751.2c0,0.6,0.4,1,0.8,1.3c1.7,0.9,4.7,1.2,7.2,1.2c1.9,0,4-0.4,5.4-1.4c1.6-1.2,3-4.6,3-10c0-12-8.2-14.8-12.6-14.8
			c-1.3,0-2.7,0-3.2,0.3c-0.4,0.2-0.6,0.3-0.6,1V751.2z"/>
		<path fill="#4F4F4F" d="M373.6,745.9c0-14-0.1-15.6-0.3-18.3c-0.2-2.1-1.1-3.5-3.1-3.9c-0.8-0.2-1.8-0.2-2.6-0.3
			c-1.3-0.1-1.5-0.6-1.5-1.1s0.5-0.9,1.9-0.9c5.3,0,9.4,0.3,13.1,0.3c1.6,0,24-0.1,25.3-0.1c1.7,0,3.5-0.1,5-0.4
			c0.6-0.2,1.1-0.3,1.4-0.3c0.5,0,0.7,0.4,0.6,0.9c-0.2,1.1-0.5,2.1-0.7,4.1c-0.1,2.1-0.2,3.9-0.5,9.2c0,0.7-0.4,1.4-1,1.4
			c-0.5,0-0.9-0.4-1-1.2c-0.2-1.2-0.2-1.9-0.5-3.1c-0.5-1.9-1.6-3.1-5.7-3.5c-3.2-0.2-10.3-0.4-13.1-0.4c-0.5,0-0.7,0.3-0.7,0.9V747
			c0,0.6,0.1,0.8,0.7,0.8c2.6,0,8.7,0,12.1-0.1c4.8-0.2,5.9-0.5,7-2.1c0.4-0.8,0.8-1.1,1.2-1.1c0.6,0,0.7,0.6,0.7,1.1
			c0,1-0.6,4.7-0.7,7.8c-0.1,1.9-0.2,6.3-0.2,7.3c0,1.2-0.3,1.5-0.9,1.5c-0.5,0-0.9-0.4-1-1.4c-0.1-0.5-0.1-1.1-0.2-1.7
			c-0.5-2.6-1.5-4.2-6-4.5c-2.7-0.2-9.4-0.3-12.1-0.3c-0.5,0-0.6,0.2-0.6,0.7v6.1c0,2.8-0.1,6.8,0,10.2c0.1,5.9,1.2,7.3,11.1,7.3
			c2.2,0,5.7-0.1,8.1-1c2.4-1,3.4-3,4.2-6.9c0.2-1,0.6-1.5,1.2-1.5c0.7,0,0.8,0.7,0.8,1.8c0,3.7-0.9,10.5-1.3,12.2
			c-0.7,2.1-1.4,2.2-4.6,2.2c-13.1,0-19.3-0.5-28.6-0.5c-4.1,0-8.3,0.3-13.3,0.3c-1.7,0-2-0.5-2-1.1c0-0.4,0.3-0.9,1.8-0.9
			c0.9-0.1,1.6-0.1,2.5-0.3c2.8-0.5,3.1-3.8,3.4-9.7c0-3.2,0.1-7.9,0.1-12.6V745.9z"/>
		<path fill="#4F4F4F" d="M443.3,769.2c-0.6,0-0.9,0.6-1,0.9l-2,5c-0.9,2.1-1.5,4.1-1.5,5.2c0,2.8,3.7,2.9,5.9,3.1
			c1.3,0.1,1.6,0.5,1.6,0.9c0,0.7-0.5,1.1-1.7,1.1c-4.3,0-7.2-0.3-12.2-0.3c-1,0-6.6,0.3-10.8,0.3c-1.4,0-1.8-0.4-1.8-1
			c0-0.6,0.5-1,1.6-1c4.2-0.5,6.4-1.7,9-7.4l23.4-49.9c2-4.5,3-5.7,4.1-5.7c1,0,1.8,1.3,3.4,4.6c2.1,4.8,17.2,36.4,23.1,49.3
			c3,6.2,4.6,8.5,7.9,9c0.8,0.1,1.5,0.2,1.9,0.2c1.1,0,1.7,0.5,1.7,1c0,0.7-0.8,1-1.8,1c-9.8-0.1-20-0.2-25.1-0.3
			c-1.2,0-1.8-0.4-1.8-0.9c0-0.6,0.6-0.8,1.2-1c0.8-0.3,1.7-0.4,1.2-1.5l-5.4-12c-0.1-0.3-0.5-0.5-0.8-0.5H443.3z M460.7,761.5
			c0.6,0,0.6-0.2,0.5-0.4l-7.7-17.4c-0.3-0.5-0.3-0.3-0.5,0.1l-7.2,17.3c-0.1,0.3,0.1,0.4,0.3,0.4H460.7z"/>
		<path fill="#4F4F4F" d="M526.3,760.7c0,6.4,0.1,13.9,0.4,17.5c0.2,2.1,0.9,4.3,3.5,4.7c1.1,0.2,2,0.3,3.5,0.4
			c1.6,0.2,1.9,0.6,1.9,1.2c0,0.5-0.5,0.8-2,0.8c-6,0-15.2-0.3-16.5-0.3s-10.6,0.3-13.3,0.3c-1.5,0-2-0.2-2-0.9c0-0.7,0.8-1,1.8-1.1
			c0.9-0.1,1.8-0.1,2.8-0.3c1.9-0.4,2.5-2,2.8-4.5c0.4-3.6,0.4-9.5,0.4-17.8v-32.4c-3.3,0-9-0.1-13.3,0.2c-4.8,0.3-6.4,1.5-7.5,4.9
			c-0.2,0.6-0.4,1.3-0.7,1.9c-0.2,0.6-0.5,1.3-1.1,1.3c-0.7,0-0.9-0.8-0.8-1.8c0.5-4.1,1.3-8.5,1.9-12.4c0.2-1.3,0.7-1.9,1.2-1.9
			s1.2,0.4,2.5,0.6c1.3,0.3,6.6,0.7,9.9,0.7h39c2.5,0,4.1-0.2,5.3-0.4c1.7-0.3,2.3-0.5,2.8-0.5c1,0,0.9,0.5,0.9,2.9
			c0,1-0.6,9.7-0.7,11.8c-0.1,1.4-0.6,1.8-1.1,1.8s-0.9-0.5-1-1.5c0-1.1-0.1-1.6-0.1-2c-0.3-2.6-1.4-4.5-5.9-5
			c-3.1-0.2-7.8-0.6-14.8-0.6V760.7z"/>
		<path fill="#4F4F4F" d="M565.2,745.9c0-13.2,0-15.4-0.3-18c-0.2-2.2-0.8-3.8-2.9-4.1c-0.6-0.2-1.6-0.3-2.7-0.4
			c-1.2-0.1-1.7-0.4-1.7-1c0-0.5,0.3-1,1.9-1c3.4,0,12.8,0.3,13.1,0.3c0.5,0,11.5-0.3,14.8-0.3c1.6,0,1.8,0.4,1.8,1
			c0,0.7-0.7,0.9-1.8,1c-0.9,0.1-1,0.1-1.9,0.3c-2.3,0.5-3.1,1.4-3.5,4.3c-0.3,2.7-0.3,4.8-0.3,17.9v14.8c0,6.4,0.1,14.4,0.5,18
			c0.2,2.1,0.8,3.6,3.4,4.2c1.2,0.3,2.6,0.3,3.6,0.4c1.5,0,1.9,0.6,1.9,1.1c0,0.4-0.4,0.9-1.9,0.9c-6,0-16.1-0.3-16.6-0.3
			c-0.2,0-10.3,0.3-13.1,0.3c-1.5,0-2-0.3-2-1c0-0.5,0.5-1,1.5-1c0.8-0.1,1.7-0.1,2.8-0.3c1.9-0.4,2.6-2.1,2.8-4.6
			c0.5-3.5,0.6-9.4,0.6-17.7V745.9z"/>
		<path fill="#4F4F4F" d="M599.2,753.7c0-17.6,12.1-33.4,37.7-33.4c22.2,0,36.2,14.9,36.2,31.5c0,19.8-13.7,34.7-36.7,34.7
			C610.4,786.4,599.2,768.6,599.2,753.7z M654.4,755.6c0-12.9-4.7-29.7-20.5-29.7c-7.5,0-16,3.8-16,23.6c0,15.6,6.2,31.1,20.8,31.1
			C644,780.6,654.4,778.5,654.4,755.6z"/>
		<path fill="#4F4F4F" d="M690.2,724.5c0.1-2.8,0.4-4.3,1.7-4.3c0.5,0,0.9,0,3.3,1.9c4.2,3.3,17.6,14.8,28.5,24.4
			c9.6,8.5,14.2,12.4,16.8,14.6l-0.5-29.8c-0.2-4.7-0.8-6.9-4.6-7.5c-1.1-0.2-2.1-0.3-3.5-0.4c-1.2-0.1-1.6-0.6-1.6-1
			c0-0.7,0.8-1,1.7-1c3.2,0,9.3,0.3,13.2,0.3c2.1,0,6.7-0.3,10.2-0.3c1.5,0,1.9,0.4,1.9,0.9c0,0.4-0.2,1-1.5,1.1
			c-1.1,0.1-1.4,0.1-1.9,0.2c-2.9,0.4-3.9,1.7-4.2,7c-0.8,15.9-1.1,33.1-1.2,50.1c0,4.9-0.6,5.7-1.9,5.7c-1.5,0-4.5-2.1-11.4-7.8
			c-6-5.1-13-11-17.1-14.8c-4.7-4.2-12.2-10.6-19.7-17.4l0.9,27.4c0.2,5.8,0.4,8.3,3,9c1.7,0.4,2.6,0.5,4.4,0.6
			c1.5,0.2,1.9,0.5,1.9,1c0,0.7-0.6,1-2.1,1c-2.4,0-5.1-0.2-11.2-0.3c-2.4,0-9.5,0.3-12.5,0.3c-1.5,0-1.9-0.3-1.9-1
			c0-0.5,0.4-0.9,1.6-1c0.9-0.1,1.4-0.1,2.4-0.2c3.6-0.5,4.4-2.4,4.7-10.2C689.8,755.4,689.8,735.9,690.2,724.5z"/>
	</g>
	<g enable-background="new    ">
		<path fill="#4F4F4F" d="M774.7,783.7c-2.1-0.8-2.6-2.4-2.6-4.5c0-9.6,0.3-13.7,0.6-17.2c0.3-2.1,0.9-2.4,1.5-2.4s1,0.5,1.2,1.7
			c0.1,1,0.1,1.9,0.4,3c1.5,9.6,10.9,15.2,20.3,15.2c10.4,0,13.6-4.9,13.6-9.4c0-4.5-1.5-8.1-11.3-14.6l-7.1-4.8
			c-13.7-9.5-17.5-17-17.5-27.2c0.1-12.8,11.3-23.6,29.9-23.6c5.3,0,8.7,0.3,14,1.3c1.8,0.4,3.9,0.8,5.8,1.3
			c1.2,0.3,1.4,0.6,1.4,1.7c-0.1,4.1-0.4,6-0.4,16.3c0,1.9-0.4,2.7-1.3,2.7c-0.6,0-1.3-0.3-1.5-2.2c-0.1-1.3-0.5-3.7-1.8-6.2
			c-2.3-4.1-8.3-8-16.1-8c-9.6,0-12.7,5.4-12.7,10.1c0,4.9,2.3,8.2,8.7,12.2l6.5,4.1c16.6,10.4,21.2,16.7,21.2,27.9
			c0,8.9-4,16.6-12.8,21.4c-6.8,3.9-14.8,4.5-20.8,4.5C785.1,786.9,779.2,785.6,774.7,783.7z"/>
	</g>
	<g enable-background="new    ">
		<path fill="#4F4F4F" d="M211.9,259.7c-2-0.8-2.5-2.3-2.5-4.6c0-9.3,0.3-13.7,0.7-16.9c0.2-2.1,0.7-2.8,1.4-2.8c0.8,0,0.9,1,1,2
			c0.1,1.1,0.2,2.2,0.6,3.6c2,9.4,10.6,14.8,19.5,14.8c10.9,0,14.2-5.6,14.2-10.6c0-4.8-0.9-8.8-10.7-15.5l-7.1-4.9
			c-14-9.9-17.9-17.9-17.9-28c0-13.2,10.9-23.9,29.3-23.9c4.9,0,8.4,0.2,13.2,1.1c1.8,0.3,3.8,0.8,5.6,1.4c1.1,0.3,1.5,0.7,1.5,1.6
			c-0.2,3.7-0.5,6-0.5,16.2c0,2.1-0.3,2.9-1.3,2.9c-0.6,0-1-0.3-1.3-2.2c-0.1-1.1-0.5-4-2.1-6.7c-2.2-3.7-7.5-7.6-15.7-7.6
			c-9.4,0-12.9,5.3-12.9,10.6c0,3.9,1.4,8.4,9.2,13.7l5.9,3.9c16.1,10.7,21.1,17.8,21.1,29.4c0,7.9-3.6,15.7-12.2,20.8
			c-6.7,4-14,4.9-20,4.9C222.4,262.9,216.3,261.7,211.9,259.7z"/>
	</g>
	<g enable-background="new    ">
		<path fill="#4F4F4F" d="M274.4,229.3c0-17.8,12.2-33.8,38.2-33.8c22.5,0,36.6,15.1,36.6,31.9c0,20-13.9,35.1-37.2,35.1
			C285.7,262.4,274.4,244.3,274.4,229.3z M330.2,231.2c0-13-4.7-30.1-20.7-30.1c-7.6,0-16.2,3.8-16.2,23.9c0,15.8,6.3,31.5,21,31.5
			C319.7,256.5,330.2,254.4,330.2,231.2z"/>
		<path fill="#4F4F4F" d="M382.7,234.3c0,11.6,1.6,16.5,6.8,19.8c3.5,2,6.2,2.1,8.1,2.1c2.6,0,6.2-0.5,9.1-2.8c5.2-4,5-13.3,5-22
			v-10.1c0-12.5,0-14.4-0.2-17.2c-0.2-3.3-0.9-4.7-3.7-5.2c-1.1-0.2-1.3-0.2-3.3-0.4c-1.3-0.1-1.6-0.6-1.6-1.1c0-0.6,0.5-0.9,2-0.9
			c5.2,0,10.5,0.3,12.3,0.3c1.6,0,7.4-0.3,11.9-0.3c1.5,0,1.9,0.4,1.9,1c0,0.4-0.3,0.8-1.5,1c-0.9,0.1-1.6,0.1-2.8,0.4
			c-2.4,0.4-3.1,1.6-3.3,5.2c-0.2,2.8-0.3,4.6-0.3,17.2v8.2c0,9.9-0.4,20.3-9.3,27.2c-5.3,4.1-12.2,5.6-18.3,5.6
			c-8.6,0-16.2-1.5-21.4-5.7c-4.8-3.7-8.3-10-8.3-22.3v-13c0-13.3,0-15.5-0.2-18.2c-0.2-2.2-0.7-3.5-2.7-3.9c-1-0.3-3.2-0.5-3.8-0.6
			c-1.4-0.2-1.6-0.6-1.6-1.1s0.4-0.9,2.2-0.9c3.6,0,13.3,0.3,13.6,0.3c0.5,0,12-0.3,15.2-0.3c1.7,0,2.2,0.4,2.2,0.9
			c0,0.6-0.3,0.9-1.5,1.1c-0.8,0.1-2.3,0.2-3.2,0.4c-2.5,0.5-3.1,2.4-3.3,5c-0.2,2.8-0.2,6.9-0.2,17.4V234.3z"/>
		<path fill="#4F4F4F" d="M477.2,236.4c0,6.5,0.1,14.1,0.4,17.8c0.2,2.2,0.9,4.3,3.6,4.7c1.1,0.2,2.1,0.3,3.5,0.4
			c1.6,0.2,2,0.6,2,1.2c0,0.5-0.5,0.8-2.1,0.8c-6.1,0-15.4-0.3-16.7-0.3c-1.3,0-10.7,0.3-13.4,0.3c-1.5,0-2.1-0.2-2.1-0.9
			s0.8-1,1.8-1.1c0.9-0.1,1.8-0.1,2.9-0.3c2-0.4,2.6-2.1,2.9-4.5c0.4-3.6,0.4-9.7,0.4-18v-32.8c-3.4,0-9.1-0.1-13.4,0.2
			c-4.8,0.3-6.5,1.5-7.6,4.9c-0.2,0.6-0.4,1.3-0.7,1.9c-0.2,0.6-0.5,1.3-1.1,1.3c-0.7,0-0.9-0.8-0.8-1.8c0.5-4.1,1.3-8.6,2-12.5
			c0.2-1.3,0.7-1.9,1.2-1.9c0.5,0,1.2,0.4,2.6,0.6c1.3,0.3,6.7,0.7,10.1,0.7H492c2.6,0,4.1-0.2,5.3-0.4c1.7-0.3,2.4-0.5,2.9-0.5
			c1,0,0.9,0.5,0.9,3c0,1-0.6,9.9-0.7,11.9c-0.1,1.4-0.6,1.8-1.1,1.8s-0.9-0.5-1-1.5c0-1.1-0.1-1.6-0.1-2.1c-0.3-2.7-1.4-4.5-6-5
			c-3.2-0.2-7.9-0.6-15-0.6V236.4z"/>
		<path fill="#4F4F4F" d="M559.9,222.6c0.3,0,0.6,0,0.6-0.5v-1.8c0-13.3,0-14.4-0.2-17.2c-0.2-2.2-0.9-3.7-3.8-4.2
			c-0.7-0.1-2-0.2-3.1-0.3c-1.2,0-1.7-0.7-1.7-1c0-0.6,0.4-1,1.8-1c5.2,0,13.8,0.3,14.3,0.3c0.4,0,11.4-0.3,15.3-0.3
			c1.6,0,1.8,0.4,1.8,1c0,0.5-0.3,1-1.4,1c-1.7,0.2-1.8,0.2-2.8,0.4c-2.3,0.3-3,1.6-3.3,4.3s-0.3,4.7-0.3,18v15
			c0,8.3,0.1,14.4,0.5,17.8c0.3,3,1.1,4.3,3.7,4.7c1.2,0.2,2.9,0.2,3.6,0.3c1.2,0.1,1.7,0.5,1.7,1.1c0,0.7-0.9,0.9-2,0.9
			c-6,0-15.8-0.3-17.2-0.3s-8.4,0.3-12.9,0.3c-1.7,0-1.9-0.5-1.9-1c0-0.4,0.5-1,1.6-1c1.1-0.1,1.8-0.1,2.6-0.3
			c2.2-0.4,2.8-2,3.1-4.8c0.4-3.6,0.5-8.5,0.5-16.8v-6.5c0-0.4-0.3-0.6-0.6-0.6h-26c-0.3,0-0.6,0.1-0.6,0.6v9.1
			c0,8.2,0.1,10.8,0.5,14.4c0.3,2.6,1.4,4.2,4,4.5c1.3,0.3,2.7,0.3,3.4,0.4c1.2,0.1,1.7,0.5,1.7,1.1c0,0.4-0.3,0.9-1.7,0.9
			c-4.9,0-16.6-0.3-17.1-0.3c-0.4,0-10.7,0.3-13.4,0.3c-1,0-1.9-0.3-1.9-0.9s0.3-1,1.5-1.1c1-0.1,1.5-0.1,2.6-0.3
			c2.3-0.3,3.1-2.5,3.3-5.1c0.4-3.6,0.5-9.2,0.5-17.5v-14.7c0-13.3-0.1-15.1-0.3-17.8c-0.2-2.9-0.9-4.4-4.2-4.9
			c-1.3-0.2-1.6-0.2-2.7-0.3c-1.4-0.1-1.5-0.8-1.5-1.1c0-0.6,0.9-0.9,1.9-0.9c5.2,0,13.1,0.3,15.1,0.3c3.6,0,10.5-0.3,14.3-0.3
			c1.7,0,1.9,0.5,1.9,1.1c0,0.4-0.4,0.8-1.6,0.9c-1.2,0.1-2,0.2-2.8,0.4c-2.6,0.5-3,2.6-3.2,4.8c-0.3,2.8-0.3,6.3-0.3,16.5v1.8
			c0,0.5,0.3,0.5,0.6,0.5H559.9z"/>
		<path fill="#4F4F4F" d="M604.1,221.4c0-14.2-0.1-15.8-0.3-18.5c-0.2-2.2-1.1-3.5-3.2-3.9c-0.8-0.2-1.8-0.2-2.7-0.3
			c-1.3-0.1-1.5-0.6-1.5-1.1s0.5-0.9,1.9-0.9c5.3,0,9.5,0.3,13.2,0.3c1.6,0,24.3-0.1,25.6-0.1c1.7,0,3.5-0.1,5-0.4
			c0.6-0.2,1.1-0.3,1.4-0.3c0.5,0,0.7,0.4,0.6,0.9c-0.2,1.1-0.5,2.2-0.7,4.1c-0.1,2.2-0.2,3.9-0.5,9.3c0,0.7-0.4,1.4-1,1.4
			c-0.5,0-0.9-0.4-1-1.2c-0.2-1.2-0.2-1.9-0.5-3.2c-0.5-2-1.6-3.2-5.8-3.6c-3.3-0.2-10.5-0.4-13.2-0.4c-0.5,0-0.7,0.3-0.7,0.9v18
			c0,0.6,0.1,0.8,0.7,0.8c2.7,0,8.8,0,12.2-0.1c4.8-0.2,6-0.5,7.1-2.2c0.4-0.8,0.8-1.1,1.2-1.1c0.6,0,0.7,0.6,0.7,1.1
			c0,1-0.6,4.7-0.7,7.9c-0.1,1.9-0.2,6.4-0.2,7.4c0,1.2-0.3,1.5-0.9,1.5c-0.5,0-0.9-0.4-1-1.4c-0.1-0.5-0.1-1.1-0.2-1.7
			c-0.5-2.7-1.5-4.2-6.1-4.5c-2.8-0.2-9.5-0.3-12.2-0.3c-0.5,0-0.6,0.2-0.6,0.7v6.2c0,2.9-0.1,6.9,0,10.4c0.1,6,1.2,7.4,11.2,7.4
			c2.3,0,5.7-0.1,8.2-1c2.5-1,3.5-3.1,4.2-7c0.2-1,0.6-1.5,1.2-1.5c0.7,0,0.8,0.7,0.8,1.8c0,3.7-0.9,10.7-1.3,12.3
			c-0.7,2.2-1.4,2.3-4.6,2.3c-13.2,0-19.5-0.5-28.9-0.5c-4.1,0-8.4,0.3-13.4,0.3c-1.7,0-2.1-0.5-2.1-1.1c0-0.4,0.3-0.9,1.8-0.9
			c0.9-0.1,1.6-0.1,2.6-0.3c2.9-0.5,3.2-3.8,3.5-9.9c0-3.3,0.1-8,0.1-12.7V221.4z"/>
		<path fill="#4F4F4F" d="M663.8,221.4c0-13.3-0.1-14.6-0.3-17.4c-0.2-3.6-1.8-4.8-3.6-5c-1.6-0.3-2.4-0.3-3.1-0.4
			c-1.1,0-1.5-0.5-1.5-1s0.3-1,1.8-1c3.5,0,12.6,0.3,13.7,0.3c1.5,0,10.7-0.3,15.2-0.3c8.9,0,15,0.9,18.5,2.9
			c4.7,2.4,8.4,6.6,8.4,13.3s-4.5,12.1-11.7,16.8c4.6,7.1,10.9,16.5,16.4,22.5c4.5,5.2,6.6,6.5,9.4,6.9c0.9,0.2,1.7,0.2,2.4,0.3
			c0.9,0.1,1.4,0.6,1.4,1.1c0,0.8-1,0.9-1.8,0.9h-7.7c-10.3,0-14.5-1-17.8-3.1c-2.6-1.7-5.3-5.1-8.5-10.3c-4.1-6.9-5.6-9.8-7.3-12.3
			c-0.1-0.3-0.5-0.5-1-0.5l-5.9-0.1c-0.4,0-0.7,0.2-0.7,0.7v5.2c0,6.4,0.2,10.6,0.4,13.1c0.2,2.2,0.7,3.9,3.4,4.6
			c1.2,0.4,3,0.5,4,0.6c1.6,0.1,1.6,0.6,1.6,1.1s-0.4,0.9-1.7,0.9c-6,0-16.5-0.3-17-0.3c-1,0-10.3,0.3-13.1,0.3
			c-1.5,0-1.8-0.5-1.8-1.1c0-0.5,0.6-0.9,1.6-0.9c0.8-0.1,2.1-0.1,3.1-0.3c1.8-0.4,2.6-1.9,2.8-4.9c0.4-3.6,0.5-9.3,0.5-17.7V221.4z
			 M680.1,226.7c0,0.6,0.4,1,0.8,1.3c1.7,0.9,4.7,1.2,7.3,1.2c2,0,4-0.4,5.4-1.4c1.6-1.2,3.1-4.6,3.1-10.2c0-12.1-8.3-15-12.7-15
			c-1.3,0-2.8,0-3.3,0.3c-0.4,0.2-0.6,0.3-0.6,1V226.7z"/>
	</g>
	<g enable-background="new    ">
		<path fill="#4F4F4F" d="M737.4,189.8c0.1-3.3,0.5-5,2-5c0.6,0,1,0,3.9,2.2c4.9,3.9,20.8,17.4,33.5,28.7
			c11.4,10,16.8,14.6,19.7,17.2l-0.6-35.1c-0.2-5.5-0.9-8.1-5.4-8.8c-1.3-0.2-2.5-0.3-4.1-0.5c-1.4-0.1-1.8-0.7-1.8-1.1
			c0-0.8,0.9-1.1,2-1.1c3.8,0,10.9,0.3,15.5,0.3c2.5,0,7.9-0.3,12-0.3c1.7,0,2.2,0.5,2.2,1c0,0.5-0.2,1.1-1.7,1.3
			c-1.3,0.1-1.6,0.1-2.3,0.2c-3.4,0.5-4.6,2-4.9,8.3c-0.9,18.7-1.3,39-1.4,59c0,5.7-0.7,6.8-2.2,6.8c-1.7,0-5.3-2.5-13.4-9.2
			c-7.1-6-15.3-13-20.2-17.4c-5.5-4.9-14.3-12.5-23.2-20.5l1,32.2c0.2,6.9,0.5,9.8,3.6,10.6c2,0.5,3.1,0.6,5.2,0.7
			c1.7,0.2,2.2,0.6,2.2,1.1c0,0.8-0.7,1.1-2.5,1.1c-2.9,0-6-0.2-13.2-0.3c-2.9,0-11.2,0.3-14.7,0.3c-1.7,0-2.3-0.3-2.3-1.1
			c0-0.6,0.5-1,1.8-1.1c1-0.1,1.6-0.1,2.9-0.2c4.2-0.6,5.2-2.9,5.5-12C737,226.1,737,203.1,737.4,189.8z"/>
	</g>
	<g>
		<rect x="256.8" y="475" fill="#FFFFFF" width="88.9" height="61.2"/>
		<g enable-background="new    ">
			<path d="M268.9,496.5c0-6.2,0-7.3-0.1-8.6c-0.1-1.4-0.4-2-1.7-2.3c-0.3-0.1-0.8-0.1-1.2-0.1c-0.3,0-0.5-0.1-0.5-0.2
				c0-0.2,0.2-0.3,0.6-0.3c0.9,0,2,0,4.5,0.1c0.3,0,8.2,0,9.1,0c0.9,0,1.6-0.1,1.8-0.2c0.2-0.1,0.3-0.2,0.4-0.2
				c0.1,0,0.2,0.2,0.2,0.4c0,0.3-0.2,0.8-0.3,1.9c0,0.6-0.1,1.4-0.2,2.4c0,0.4-0.2,0.7-0.3,0.7c-0.2,0-0.3-0.2-0.3-0.5
				c0-0.5-0.1-1-0.2-1.3c-0.3-0.9-1.1-1.3-2.9-1.5c-0.7-0.1-5-0.1-5.4-0.1c-0.2,0-0.2,0.1-0.2,0.4v11c0,0.3,0,0.4,0.2,0.4
				c0.5,0,5.4,0,6.3-0.1c1.1-0.1,1.6-0.2,2-0.7c0.2-0.2,0.3-0.4,0.5-0.4c0.1,0,0.2,0.1,0.2,0.3c0,0.2-0.2,0.9-0.3,2.2
				c-0.1,1.2-0.1,2.1-0.2,2.7c0,0.4-0.1,0.6-0.3,0.6c-0.2,0-0.3-0.3-0.3-0.6c0-0.4,0-0.8-0.2-1.1c-0.2-0.6-0.6-1.2-2.1-1.3
				c-1.1-0.1-5-0.2-5.7-0.2c-0.2,0-0.3,0.1-0.3,0.3v3.5c0,1.4,0,6,0,6.8c0.1,1.6,0.3,2.5,1.3,2.9c0.7,0.3,1.7,0.4,3.3,0.4
				c1.2,0,2.5,0,3.6-0.4c1.3-0.4,1.7-1.2,2-2.9c0.1-0.4,0.2-0.6,0.4-0.6c0.2,0,0.2,0.3,0.2,0.6c0,0.3-0.3,3-0.5,3.9
				c-0.3,1-0.6,1-2.1,1c-2.9,0-4.3-0.1-5.8-0.1c-1.6,0-3.4-0.1-5-0.1c-1,0-1.9,0.2-2.9,0.1c-0.4,0-0.6-0.1-0.6-0.3
				c0-0.1,0.2-0.2,0.4-0.2c0.4,0,0.6,0,0.9-0.1c0.8-0.2,1.4-0.8,1.4-3.7c0-1.5,0.1-3.6,0.1-7.1V496.5z"/>
			<path d="M290,514.5c-0.5-0.2-0.5-0.4-0.5-1.4c0-1.8,0.1-3.2,0.2-3.7c0-0.4,0.1-0.6,0.3-0.6s0.3,0.1,0.3,0.4c0,0.2,0,0.7,0.1,1.2
				c0.5,2.6,2.9,3.6,5.2,3.6c3.3,0,4.9-2.3,4.9-4.3c0-2.3-1-3.7-3.9-6l-1.6-1.2c-3.8-3.1-4.6-5.2-4.6-7.5c0-3.7,2.9-6.1,7.4-6.1
				c1.4,0,2.3,0.1,3.2,0.3c0.8,0.2,1.1,0.2,1.4,0.2c0.3,0,0.4,0.1,0.4,0.2c0,0.2-0.2,1.6-0.2,3.9c0,0.6-0.1,0.8-0.3,0.8
				s-0.2-0.2-0.3-0.4c0-0.4-0.1-1.2-0.5-1.9c-0.2-0.4-1.1-1.9-4.5-1.9c-2.4,0-4.2,1.4-4.2,3.8c0,1.9,1,3,4.3,5.5l0.9,0.7
				c4.1,3.2,5.2,5.3,5.2,8.1c0,1.4-0.6,4-3,5.6c-1.6,1-3.5,1.4-5.4,1.4C293,515.4,291.5,515.2,290,514.5z"/>
			<path d="M319.4,505.2c0,3.1,0,5.9,0.2,7.4c0.1,1,0.2,1.5,1.2,1.7c0.5,0.1,1.2,0.2,1.6,0.2s0.5,0.1,0.5,0.2c0,0.2-0.1,0.3-0.5,0.3
				c-2,0-4.4-0.1-4.5-0.1c-0.2,0-2.5,0.1-3.5,0.1c-0.4,0-0.6-0.1-0.6-0.3c0-0.1,0.1-0.3,0.4-0.3s0.6,0,0.9,0c0.8-0.1,0.9-0.6,1-1.9
				c0.2-1.4,0.2-4.3,0.2-7.3V491c-1.3,0-3.4,0-5,0c-2.5,0-3.1,0.4-3.7,1.3c-0.4,0.6-0.5,1-0.6,1.2c-0.1,0.3-0.2,0.3-0.4,0.3
				c-0.2,0-0.2-0.2-0.2-0.4c0-0.2,0.6-2.9,0.8-3.9c0.1-0.5,0.2-0.6,0.4-0.6c0.3,0,1,0.4,1.7,0.4c1.4,0.2,2.5,0.2,2.5,0.2h13
				c1.1,0,2.3-0.1,2.9-0.2c0.5-0.1,0.6-0.2,0.8-0.2c0.2,0,0.2,0.2,0.2,0.4c0,1.1-0.1,3.7-0.1,4.1c0,0.4-0.2,0.5-0.3,0.5
				c-0.2,0-0.3-0.2-0.3-0.5c0-0.1,0-0.2,0-0.6c-0.2-1.6-0.7-2-4.7-2c-1.5,0-2.7,0-3.9,0V505.2z"/>
			<path d="M328.7,513.1c0-0.9,0.7-2.1,2.1-2.1c1.2,0,2,0.8,2,2.1c0,1.2-0.9,2.1-2.1,2.1C329.4,515.2,328.7,514,328.7,513.1z"/>
		</g>
		<g enable-background="new    ">
			<path fill="#A8A8A8" d="M268.9,496.5c0-6.2,0-7.3-0.1-8.6c-0.1-1.4-0.4-2-1.7-2.3c-0.3-0.1-0.8-0.1-1.2-0.1
				c-0.3,0-0.5-0.1-0.5-0.2c0-0.2,0.2-0.3,0.6-0.3c0.9,0,2,0,4.5,0.1c0.3,0,8.2,0,9.1,0c0.9,0,1.6-0.1,1.8-0.2
				c0.2-0.1,0.3-0.2,0.4-0.2c0.1,0,0.2,0.2,0.2,0.4c0,0.3-0.2,0.8-0.3,1.9c0,0.6-0.1,1.4-0.2,2.4c0,0.4-0.2,0.7-0.3,0.7
				c-0.2,0-0.3-0.2-0.3-0.5c0-0.5-0.1-1-0.2-1.3c-0.3-0.9-1.1-1.3-2.9-1.5c-0.7-0.1-5-0.1-5.4-0.1c-0.2,0-0.2,0.1-0.2,0.4v11
				c0,0.3,0,0.4,0.2,0.4c0.5,0,5.4,0,6.3-0.1c1.1-0.1,1.6-0.2,2-0.7c0.2-0.2,0.3-0.4,0.5-0.4c0.1,0,0.2,0.1,0.2,0.3
				c0,0.2-0.2,0.9-0.3,2.2c-0.1,1.2-0.1,2.1-0.2,2.7c0,0.4-0.1,0.6-0.3,0.6c-0.2,0-0.3-0.3-0.3-0.6c0-0.4,0-0.8-0.2-1.1
				c-0.2-0.6-0.6-1.2-2.1-1.3c-1.1-0.1-5-0.2-5.7-0.2c-0.2,0-0.3,0.1-0.3,0.3v3.5c0,1.4,0,6,0,6.8c0.1,1.6,0.3,2.5,1.3,2.9
				c0.7,0.3,1.7,0.4,3.3,0.4c1.2,0,2.5,0,3.6-0.4c1.3-0.4,1.7-1.2,2-2.9c0.1-0.4,0.2-0.6,0.4-0.6c0.2,0,0.2,0.3,0.2,0.6
				c0,0.3-0.3,3-0.5,3.9c-0.3,1-0.6,1-2.1,1c-2.9,0-4.3-0.1-5.8-0.1c-1.6,0-3.4-0.1-5-0.1c-1,0-1.9,0.2-2.9,0.1
				c-0.4,0-0.6-0.1-0.6-0.3c0-0.1,0.2-0.2,0.4-0.2c0.4,0,0.6,0,0.9-0.1c0.8-0.2,1.4-0.8,1.4-3.7c0-1.5,0.1-3.6,0.1-7.1V496.5z"/>
			<path fill="#A8A8A8" d="M290,514.5c-0.5-0.2-0.5-0.4-0.5-1.4c0-1.8,0.1-3.2,0.2-3.7c0-0.4,0.1-0.6,0.3-0.6s0.3,0.1,0.3,0.4
				c0,0.2,0,0.7,0.1,1.2c0.5,2.6,2.9,3.6,5.2,3.6c3.3,0,4.9-2.3,4.9-4.3c0-2.3-1-3.7-3.9-6l-1.6-1.2c-3.8-3.1-4.6-5.2-4.6-7.5
				c0-3.7,2.9-6.1,7.4-6.1c1.4,0,2.3,0.1,3.2,0.3c0.8,0.2,1.1,0.2,1.4,0.2c0.3,0,0.4,0.1,0.4,0.2c0,0.2-0.2,1.6-0.2,3.9
				c0,0.6-0.1,0.8-0.3,0.8s-0.2-0.2-0.3-0.4c0-0.4-0.1-1.2-0.5-1.9c-0.2-0.4-1.1-1.9-4.5-1.9c-2.4,0-4.2,1.4-4.2,3.8
				c0,1.9,1,3,4.3,5.5l0.9,0.7c4.1,3.2,5.2,5.3,5.2,8.1c0,1.4-0.6,4-3,5.6c-1.6,1-3.5,1.4-5.4,1.4C293,515.4,291.5,515.2,290,514.5z
				"/>
			<path fill="#A8A8A8" d="M319.4,505.2c0,3.1,0,5.9,0.2,7.4c0.1,1,0.2,1.5,1.2,1.7c0.5,0.1,1.2,0.2,1.6,0.2s0.5,0.1,0.5,0.2
				c0,0.2-0.1,0.3-0.5,0.3c-2,0-4.4-0.1-4.5-0.1c-0.2,0-2.5,0.1-3.5,0.1c-0.4,0-0.6-0.1-0.6-0.3c0-0.1,0.1-0.3,0.4-0.3s0.6,0,0.9,0
				c0.8-0.1,0.9-0.6,1-1.9c0.2-1.4,0.2-4.3,0.2-7.3V491c-1.3,0-3.4,0-5,0c-2.5,0-3.1,0.4-3.7,1.3c-0.4,0.6-0.5,1-0.6,1.2
				c-0.1,0.3-0.2,0.3-0.4,0.3c-0.2,0-0.2-0.2-0.2-0.4c0-0.2,0.6-2.9,0.8-3.9c0.1-0.5,0.2-0.6,0.4-0.6c0.3,0,1,0.4,1.7,0.4
				c1.4,0.2,2.5,0.2,2.5,0.2h13c1.1,0,2.3-0.1,2.9-0.2c0.5-0.1,0.6-0.2,0.8-0.2c0.2,0,0.2,0.2,0.2,0.4c0,1.1-0.1,3.7-0.1,4.1
				c0,0.4-0.2,0.5-0.3,0.5c-0.2,0-0.3-0.2-0.3-0.5c0-0.1,0-0.2,0-0.6c-0.2-1.6-0.7-2-4.7-2c-1.5,0-2.7,0-3.9,0V505.2z"/>
			<path fill="#A8A8A8" d="M328.7,513.1c0-0.9,0.7-2.1,2.1-2.1c1.2,0,2,0.8,2,2.1c0,1.2-0.9,2.1-2.1,2.1
				C329.4,515.2,328.7,514,328.7,513.1z"/>
		</g>
	</g>
	<g>
		<rect x="689.6" y="475" fill="#FFFFFF" width="96.1" height="61.2"/>
		<g enable-background="new    ">
			<path d="M696.3,514.9c-0.3,0-0.6-0.2-0.6-0.6c0-0.3,0.4-0.7,0.7-1c8-7.1,13.9-12.6,13.9-20.2c0-5.7-3.7-7.4-6.3-7.4
				c-1.9,0-3.1,0.4-4.3,1.5c-1,0.9-1.4,2.3-1.4,3.9c0,0.4-0.1,0.6-0.3,0.6c-0.2,0-0.3-0.2-0.3-0.5c0-0.4-0.2-3.7-0.2-4.9
				c0-0.2,0-0.4,0.4-0.6c1.5-0.7,3.8-1.4,7-1.4c6,0,9,3.8,9,8c0,8.2-8.9,15.6-13.8,19.8c-0.2,0.2-0.1,0.3,0.1,0.3h2.9
				c0.7,0,5.4,0,6.8-0.2c2.9-0.3,4.2-1.5,4.7-3.8c0.1-0.4,0.2-0.6,0.4-0.6c0.2,0,0.2,0.2,0.2,0.5c0,0.8-0.8,4-1.2,5.3
				c-0.3,1.1-0.9,1.2-2.6,1.2C703.1,514.9,697.9,514.9,696.3,514.9z"/>
			<path d="M729.4,515.5c-6.3,0-9.5-7.6-9.5-14.7c0-9.6,3.7-16.5,10.2-16.5c7.4,0,9.6,9.5,9.6,14.7
				C739.6,508.2,736,515.5,729.4,515.5z M729.2,485.8c-3.8,0-6,5.4-6,13.4c0,7,2,14.8,7,14.8c3.7,0,6-5.5,6-13.3
				C736.2,493.2,733.8,485.8,729.2,485.8z"/>
			<path d="M749,489.8c0-0.8-0.1-1.3-0.6-1.3c-1,0-3.7,1.2-3.9,1.2c-0.1,0-0.4,0-0.4-0.2c0-0.1,0.1-0.3,0.3-0.4
				c2.5-1.7,4.1-2.6,6.6-4.3c0.4-0.2,0.7-0.5,1-0.5c0.3,0,0.3,0.4,0.3,0.8c0,0.1-0.2,8.6-0.2,17.7c0,4,0.1,7.5,0.2,9.3
				c0.1,1.2,0.4,1.9,1.7,2c0.5,0,0.8,0.1,1.1,0.1c0.4,0,0.6,0.2,0.6,0.4c0,0.2-0.2,0.3-0.7,0.3c-3,0-4.3-0.1-4.5-0.1
				c-0.2,0-2.3,0.1-4.9,0.1c-0.4,0-0.7-0.1-0.7-0.3c0-0.2,0.2-0.3,0.6-0.3c0.6,0,1.1-0.1,1.5-0.1c1.5-0.1,1.8-0.8,1.9-2.3
				c0.1-1.7,0.1-5,0.1-9V489.8z"/>
			<path d="M760,514.9c-0.3,0-0.6-0.2-0.6-0.6c0-0.3,0.4-0.7,0.7-1c8-7.1,13.9-12.6,13.9-20.2c0-5.7-3.7-7.4-6.3-7.4
				c-1.9,0-3.1,0.4-4.3,1.5c-1,0.9-1.4,2.3-1.4,3.9c0,0.4-0.1,0.6-0.3,0.6c-0.2,0-0.3-0.2-0.3-0.5c0-0.4-0.2-3.7-0.2-4.9
				c0-0.2,0-0.4,0.4-0.6c1.5-0.7,3.8-1.4,7-1.4c6,0,9,3.8,9,8c0,8.2-8.9,15.6-13.8,19.8c-0.2,0.2-0.1,0.3,0.1,0.3h2.9
				c0.7,0,5.4,0,6.8-0.2c2.9-0.3,4.2-1.5,4.7-3.8c0.1-0.4,0.2-0.6,0.4-0.6c0.2,0,0.2,0.2,0.2,0.5c0,0.8-0.8,4-1.2,5.3
				c-0.3,1.1-0.9,1.2-2.6,1.2C766.8,514.9,761.5,514.9,760,514.9z"/>
		</g>
		<g enable-background="new    ">
			<path fill="#A8A8A8" d="M696.3,514.9c-0.3,0-0.6-0.2-0.6-0.6c0-0.3,0.4-0.7,0.7-1c8-7.1,13.9-12.6,13.9-20.2
				c0-5.7-3.7-7.4-6.3-7.4c-1.9,0-3.1,0.4-4.3,1.5c-1,0.9-1.4,2.3-1.4,3.9c0,0.4-0.1,0.6-0.3,0.6c-0.2,0-0.3-0.2-0.3-0.5
				c0-0.4-0.2-3.7-0.2-4.9c0-0.2,0-0.4,0.4-0.6c1.5-0.7,3.8-1.4,7-1.4c6,0,9,3.8,9,8c0,8.2-8.9,15.6-13.8,19.8
				c-0.2,0.2-0.1,0.3,0.1,0.3h2.9c0.7,0,5.4,0,6.8-0.2c2.9-0.3,4.2-1.5,4.7-3.8c0.1-0.4,0.2-0.6,0.4-0.6c0.2,0,0.2,0.2,0.2,0.5
				c0,0.8-0.8,4-1.2,5.3c-0.3,1.1-0.9,1.2-2.6,1.2C703.1,514.9,697.9,514.9,696.3,514.9z"/>
			<path fill="#A8A8A8" d="M729.4,515.5c-6.3,0-9.5-7.6-9.5-14.7c0-9.6,3.7-16.5,10.2-16.5c7.4,0,9.6,9.5,9.6,14.7
				C739.6,508.2,736,515.5,729.4,515.5z M729.2,485.8c-3.8,0-6,5.4-6,13.4c0,7,2,14.8,7,14.8c3.7,0,6-5.5,6-13.3
				C736.2,493.2,733.8,485.8,729.2,485.8z"/>
			<path fill="#A8A8A8" d="M749,489.8c0-0.8-0.1-1.3-0.6-1.3c-1,0-3.7,1.2-3.9,1.2c-0.1,0-0.4,0-0.4-0.2c0-0.1,0.1-0.3,0.3-0.4
				c2.5-1.7,4.1-2.6,6.6-4.3c0.4-0.2,0.7-0.5,1-0.5c0.3,0,0.3,0.4,0.3,0.8c0,0.1-0.2,8.6-0.2,17.7c0,4,0.1,7.5,0.2,9.3
				c0.1,1.2,0.4,1.9,1.7,2c0.5,0,0.8,0.1,1.1,0.1c0.4,0,0.6,0.2,0.6,0.4c0,0.2-0.2,0.3-0.7,0.3c-3,0-4.3-0.1-4.5-0.1
				c-0.2,0-2.3,0.1-4.9,0.1c-0.4,0-0.7-0.1-0.7-0.3c0-0.2,0.2-0.3,0.6-0.3c0.6,0,1.1-0.1,1.5-0.1c1.5-0.1,1.8-0.8,1.9-2.3
				c0.1-1.7,0.1-5,0.1-9V489.8z"/>
			<path fill="#A8A8A8" d="M760,514.9c-0.3,0-0.6-0.2-0.6-0.6c0-0.3,0.4-0.7,0.7-1c8-7.1,13.9-12.6,13.9-20.2c0-5.7-3.7-7.4-6.3-7.4
				c-1.9,0-3.1,0.4-4.3,1.5c-1,0.9-1.4,2.3-1.4,3.9c0,0.4-0.1,0.6-0.3,0.6c-0.2,0-0.3-0.2-0.3-0.5c0-0.4-0.2-3.7-0.2-4.9
				c0-0.2,0-0.4,0.4-0.6c1.5-0.7,3.8-1.4,7-1.4c6,0,9,3.8,9,8c0,8.2-8.9,15.6-13.8,19.8c-0.2,0.2-0.1,0.3,0.1,0.3h2.9
				c0.7,0,5.4,0,6.8-0.2c2.9-0.3,4.2-1.5,4.7-3.8c0.1-0.4,0.2-0.6,0.4-0.6c0.2,0,0.2,0.2,0.2,0.5c0,0.8-0.8,4-1.2,5.3
				c-0.3,1.1-0.9,1.2-2.6,1.2C766.8,514.9,761.5,514.9,760,514.9z"/>
		</g>
	</g>
</g>
<g id="cupcake_1_">
	
		<ellipse id="cake_1_" fill="#DDBE3A" stroke="#FFFFFF" stroke-width="4" stroke-miterlimit="10" cx="512" cy="504.6" rx="149.4" ry="27.4"/>
	<g id="case_3_">
		<path fill="#FFFFFF" d="M511.8,695.3c-23.8,0-47.1-2.9-67.3-8.5c-18.4-5-33.8-12.2-43.1-20.1c-8.7-7.3-12.6-14.8-11.5-22.5v-0.2
			v-0.2c-3.9-47.1-16.9-87.9-39.9-124.5c1.8,0.3,3.7,0.5,5.4,0.5c3.8,0,7.5-0.8,10.4-2.4c4,3.9,9.4,6.6,15.1,7.6
			c1.6,0.3,3.1,0.4,4.7,0.4c4,0,7.7-0.9,10.7-2.7c3.9,3.8,9.1,6.5,14.6,7.3c1.2,0.2,2.5,0.3,3.7,0.3c4.1,0,8.1-1.1,11.3-3.2
			c3.8,3.7,9,6.1,14.3,6.8c0.9,0.1,1.8,0.2,2.7,0.2c4.4,0,8.7-1.3,12-3.7c3.8,3.6,8.9,5.8,14.2,6.2c0.5,0,1.1,0.1,1.6,0.1
			c4.8,0,9.3-1.5,12.8-4.3c3.8,3.4,8.9,5.5,14.2,5.6c0.2,0,0.4,0,0.6,0c5.1,0,10-1.7,13.7-4.9c3.7,3.2,8.6,4.9,13.7,4.9
			c0.2,0,0.4,0,0.6,0c5.3-0.1,10.4-2.1,14.2-5.6c3.5,2.8,8,4.3,12.8,4.3c0.5,0,1.1,0,1.6-0.1c5.3-0.4,10.4-2.6,14.2-6.2
			c3.3,2.4,7.6,3.7,12,3.7c0.9,0,1.8-0.1,2.7-0.2c5.3-0.6,10.5-3,14.3-6.8c3.2,2.1,7.2,3.2,11.3,3.2c1.2,0,2.5-0.1,3.7-0.3
			c5.4-0.8,10.7-3.4,14.6-7.3c3,1.8,6.8,2.7,10.7,2.7c1.5,0,3.1-0.1,4.7-0.4c5.7-1,11.1-3.7,15.1-7.6c2.9,1.6,6.5,2.4,10.4,2.4
			c1.8,0,3.6-0.2,5.4-0.5c-22.9,36.6-36,77.3-39.9,124.5v0.3l0.1,0.3c1,5.3-0.8,10.8-5.3,16.3c-14,17-55.6,34.3-116.8,34.6h-0.5
			V695.3z"/>
		<path fill="#FFFFFF" d="M365.5,520.1c4.2,3.6,9.5,6.1,15.1,7.2c1.7,0.3,3.4,0.5,5,0.5c3.8,0,7.4-0.8,10.4-2.3
			c4,3.6,9.2,5.9,14.6,6.8c1.3,0.2,2.7,0.3,4,0.3c3.9,0,7.8-0.9,11-2.7c3.9,3.4,9.1,5.7,14.3,6.3c1,0.1,1.9,0.2,2.9,0.2
			c4.3,0,8.4-1.1,11.8-3.2c3.9,3.3,9,5.3,14.2,5.7c0.6,0,1.2,0.1,1.8,0.1c4.6,0,9.1-1.3,12.7-3.7c4,3.1,9,4.9,14.2,5
			c0.2,0,0.4,0,0.6,0c5,0,9.8-1.6,13.7-4.4c3.9,2.8,8.8,4.4,13.7,4.4c0.2,0,0.4,0,0.6,0c5.2-0.1,10.3-1.9,14.2-5
			c3.6,2.4,8.1,3.7,12.7,3.7c0.6,0,1.2,0,1.8-0.1c5.2-0.4,10.3-2.4,14.2-5.7c3.4,2.1,7.5,3.2,11.8,3.2c1,0,1.9-0.1,2.9-0.2
			c5.3-0.6,10.4-2.8,14.3-6.3c3.2,1.7,7.1,2.7,11,2.7c1.3,0,2.7-0.1,4-0.3c5.4-0.8,10.6-3.2,14.6-6.8c3,1.5,6.6,2.3,10.4,2.3
			c1.6,0,3.3-0.2,5-0.5c5.6-1,10.9-3.5,15.1-7.2c2.9,1.3,6.3,2,10,2c0.5,0,1,0,1.5,0c-21.8,35.9-34.2,75.9-38,121.7v0.5l0.1,0.5
			c0.9,4.7-0.8,9.7-4.9,14.7c-7.5,9-22.2,17.3-41.3,23.4c-21.3,6.8-46.9,10.3-73.9,10.4h-0.2c-23.6,0-46.7-2.9-66.7-8.4
			c-18.2-4.9-33.3-12-42.3-19.7c-8.2-6.8-11.8-13.7-10.8-20.7l0.1-0.4v-0.4c-3.8-46-16.2-85.9-38-121.7c0.5,0,1,0,1.5,0
			C359.1,522,362.5,521.4,365.5,520.1 M366.2,515c-2.8,1.8-6.5,2.9-10.7,2.9c-1.7,0-3.4-0.2-5.2-0.5c-1.6-0.3-3.2-0.7-4.7-1.3
			c26.9,41,38.7,83.9,42.4,127.9c-1.2,8.5,3,16.7,12.2,24.3c18.8,15.9,61,29,111.7,29c0.1,0,0.1,0,0.2,0
			c76-0.3,128.9-27.7,124.1-53.3c3.6-44,15.5-86.9,42.4-127.9c-1.5,0.5-3,1-4.7,1.3c-1.8,0.3-3.6,0.5-5.2,0.5c-4.2,0-7.9-1-10.7-2.9
			c-3.6,3.9-9,7.1-15.1,8.2c-1.5,0.3-2.9,0.4-4.3,0.4c-4.3,0-8.2-1.2-11-3.3c-3.5,3.9-8.7,7-14.6,7.9c-1.2,0.2-2.3,0.3-3.4,0.3
			c-4.5,0-8.6-1.4-11.5-3.8c-3.4,3.9-8.5,6.9-14.3,7.5c-0.8,0.1-1.6,0.1-2.4,0.1c-4.8,0-9.1-1.7-12.2-4.4c-3.3,3.8-8.4,6.6-14.1,7
			c-0.5,0-1,0.1-1.5,0.1c-5.1,0-9.7-1.9-12.9-5c-3.4,3.7-8.4,6.2-14.1,6.3c-0.2,0-0.3,0-0.5,0c-5.5,0-10.4-2.2-13.7-5.7
			c-3.3,3.5-8.2,5.7-13.7,5.7c-0.2,0-0.3,0-0.5,0c-5.7-0.1-10.8-2.6-14.1-6.3c-3.2,3.1-7.8,5-12.9,5c-0.5,0-1,0-1.5-0.1
			c-5.7-0.4-10.8-3.1-14.1-7c-3.1,2.7-7.4,4.4-12.2,4.4c-0.8,0-1.6,0-2.5-0.1c-5.8-0.7-10.9-3.5-14.3-7.5c-2.9,2.4-7,3.8-11.5,3.8
			c-1.1,0-2.2-0.1-3.4-0.3c-5.9-0.9-11.1-3.9-14.6-7.9c-2.8,2.1-6.7,3.3-11,3.3c-1.4,0-2.8-0.1-4.3-0.4
			C375.1,522.1,369.8,519,366.2,515L366.2,515z"/>
	</g>
	<g id="frosting_1_">
		<g id="shadows_2_">
			<path fill="#777777" d="M504.4,551.7c2.5-0.9,4.8-2.5,7-4.6c2.1,2.1,4.5,3.7,7,4.6c-2.6,41.4-4.7,82.9-7,124.4
				C509.2,634.5,507.1,593.1,504.4,551.7z"/>
			<path fill="#777777" d="M530.5,551.3c2.6-1.1,5-2.9,7.3-5.3c2.1,1.9,4.3,3.2,6.8,3.9c-3.7,41.3-6.2,82.7-8.2,124.3
				C533.9,633.3,532.1,592.3,530.5,551.3z"/>
			<path fill="#777777" d="M556.8,549c2.7-1.3,5.3-3.3,7.7-5.9c2,1.6,4.1,2.7,6.5,3.3c-5,40.6-8.1,81.4-9.7,122.4
				C558.5,628.9,557.3,589,556.8,549z"/>
			<path fill="#777777" d="M583.5,544.7c2.9-1.5,5.5-3.7,8-6.6c1.9,1.3,4,2.3,6.2,2.7c-6.5,39.1-10.2,78.4-11.8,118
				C583.2,621,582.6,582.9,583.5,544.7z"/>
			<path fill="#777777" d="M610.4,538.8c3-1.6,5.9-4,8.5-7.2c1.8,1.1,3.8,1.9,5.9,2.2c-7.9,36.2-12.6,72.7-14.8,109.4
				C607.9,608.6,608.3,573.8,610.4,538.8z"/>
			<path fill="#777777" d="M637.8,531.5c3.4-1.8,6.6-4.4,9.5-7.8c1.8,0.9,3.7,1.6,5.7,1.8c0.8,0.1,1.6,0.2,2.3,0.2
				c-12.2,32.5-22.8,65.6-28.3,99.3C627.6,593.9,632.6,562.8,637.8,531.5z"/>
			<path fill="#777777" d="M505,551.6c2.5-0.9,4.8-2.5,7-4.6c2.1,2.1,4.5,3.7,7,4.6c-2.6,41.4-4.7,82.9-7,124.4
				C509.8,634.5,507.7,593.1,505,551.6z"/>
			<path fill="#777777" d="M478.8,550c2.4-0.8,4.6-2.1,6.8-3.9c2.2,2.4,4.6,4.1,7.3,5.3c-1.5,41-3.2,82-5.8,122.9
				C485.1,632.7,482.6,591.3,478.8,550z"/>
			<path fill="#777777" d="M452.4,546.4c2.3-0.6,4.4-1.7,6.5-3.3c2.3,2.6,4.8,4.6,7.7,5.9c-0.3,40-1.6,79.9-4.3,119.6
				C460.5,627.7,457.5,587,452.4,546.4z"/>
			<path fill="#777777" d="M425.7,540.9c2.2-0.5,4.2-1.4,6.2-2.7c2.4,2.8,5.1,5,8,6.6c0.9,38.2,0.3,76.2-2.3,114.1
				C436,619.3,432.3,580,425.7,540.9z"/>
			<path fill="#777777" d="M398.6,534c2.1-0.4,4-1.1,5.9-2.2c2.5,3,5.4,5.4,8.5,7.1c2.2,35,2.4,69.8,0.4,104.4
				C411.2,606.6,406.5,570.1,398.6,534z"/>
			<path fill="#777777" d="M368.1,525.9c0.8,0,1.6-0.1,2.3-0.2c2-0.3,3.9-0.9,5.7-1.8c2.8,3.3,6,5.9,9.5,7.8
				c5.1,31.1,10.8,62.4,11.3,93.5C391.4,591.4,380.3,558.4,368.1,525.9z"/>
		</g>
		<g>
			<path fill="#FFFFFF" d="M512,512.5c-44.5,0-83-6.5-108.5-18.2c-4-1.1-7.9-2.7-11.3-4.7l-0.4-0.3c-0.4-0.2-0.8-0.5-1.2-0.7
				c-0.3-0.2-0.6-0.4-1-0.6c-0.2-0.1-0.4-0.3-0.6-0.4c-0.5-0.3-1-0.7-1.4-1c-7.7-5.7-13.1-13.3-15.6-22c-0.2-0.7-0.4-1.5-0.6-2.5
				v-0.1c-0.1-0.7-0.3-1.3-0.4-1.9v-0.2c-0.1-0.7-0.2-1.3-0.3-1.9v-0.4c-0.1-0.6-0.1-1.1-0.1-1.7c0-0.2,0-0.7,0-0.7
				c0-0.5,0-0.9,0-1.4v-0.2c0-0.2,0-0.4,0-0.6v-0.6c0-0.2,0-0.4,0-0.6c0-0.6,0.1-1.1,0.1-1.7v-0.3c0.7-6.9,3.2-13.5,7.4-19.4
				l0.1-0.1c0.3-0.5,0.7-0.9,1-1.4c0.1-0.2,0.3-0.4,0.4-0.5c0.2-0.3,0.5-0.6,0.7-0.9c0.3-0.3,0.6-0.6,0.8-1l0.4-0.4
				c5.3-5.7,12.2-10.2,20-12.8h0.1c0.6-0.2,1.3-0.4,1.9-0.6c0.2,0,0.8-0.2,0.8-0.2l0.3-0.1c0.3-0.1,0.5-0.1,0.8-0.2
				c-2.3-9.8-0.8-20,4.3-28.9c6.1-10.6,16.8-18.4,29.4-21.5c8.1-2.7,16.9-6.1,18.5-7.1c10-13.6,22.2-25.8,36.1-36.2
				c8.9-6.7,18.3-12.4,29-17.6c0.5-0.3,1.1-0.4,1.7-0.4c1.4,0,2.7,0.8,3.4,2c0.6,1.1,0.6,2.5,0,3.6c-2.9,4.9-3.5,11.2-1.5,16.4
				c2.3,6.1,7.6,11.3,13.6,13.4c1.4,0.5,4.8,2,6.3,2.6c3.2-0.7,6.7-1.1,10-1.1c21,0,41.1,14.7,46.9,34.3l0.8,2.5h-0.2
				c0.1,1,0.2,1.1,0.3,1.6c17.1,4.2,28.7,15,32.9,30.4l0.2,0.6c1.7,4.9,1.7,10.2,0.1,16.5c11.3,8.4,17,18.8,17,31.2
				c0,15.5-9,28.7-24.6,36.4C605.5,504.6,562.8,512.5,512,512.5z"/>
			<path fill="#FFFFFF" d="M524.1,302.3c1.2,0,2.3,1.4,1.6,2.5c-3.2,5.4-3.9,12.2-1.7,18.2c2.4,6.5,8,12.3,14.9,14.6
				c1.6,0.6,6.8,2.8,6.8,2.8c3.4-0.8,6.9-1.3,10.2-1.3c20.4,0,39.4,14.7,45,32.9l0,0c0.5,2,0.8,3.4,1.1,5.1
				c15.4,3.5,28.3,13,32.7,29.1h-0.1c2,6,1.8,11.1,0,17.6c10.7,7.5,17.2,17.4,17.3,30.5c0,15.5-9.5,27.7-23.6,34.6
				c-23.9,13.9-66.3,21.4-116.2,21.4c-44.2,0-82.9-6.6-107.8-18.1c-3.9-1.1-7.7-2.6-11-4.6c-0.1-0.1-0.3-0.2-0.4-0.2
				c-0.4-0.2-0.7-0.4-1.1-0.7c-0.3-0.2-0.6-0.4-0.9-0.6c-0.2-0.1-0.4-0.3-0.6-0.4c-0.5-0.3-0.9-0.7-1.4-1c0,0,0,0-0.1,0
				c-7.1-5.2-12.4-12.4-14.9-20.9l0,0c-0.2-0.8-0.4-1.6-0.6-2.3c0-0.1,0-0.1,0-0.2c-0.1-0.6-0.3-1.2-0.4-1.8c0-0.1,0-0.2,0-0.3
				c-0.1-0.6-0.2-1.2-0.2-1.8c0-0.1,0-0.3,0-0.4c-0.1-0.5-0.1-1.1-0.1-1.6c0-0.2,0-0.4,0-0.7c0-0.4,0-0.9,0-1.3c0-0.1,0-0.1,0-0.2
				l0,0c0-0.3,0-0.6,0-0.9s0-0.6,0-0.8c0-0.5,0.1-1.1,0.1-1.6c0-0.1,0-0.2,0-0.3c0.7-6.8,3.1-13,7-18.3c0,0,0-0.1,0.1-0.1
				c0.3-0.4,0.6-0.9,1-1.3c0.1-0.2,0.3-0.3,0.4-0.5c0.2-0.3,0.5-0.6,0.7-0.8c0.3-0.3,0.5-0.6,0.8-0.9c0.1-0.1,0.2-0.3,0.3-0.4
				c4.9-5.4,11.4-9.7,19-12.2h0.1c0.6-0.2,1.2-0.4,1.9-0.6c0.2-0.1,0.5-0.1,0.7-0.2c0.4-0.1,0.7-0.2,1.1-0.3l2-0.5
				c-6.3-21.7,8-44.1,31.8-50c0,0,18.5-6.3,19.5-7.7c7.7-10.5,19.1-23.6,35.8-36c10.1-7.6,20-13.1,28.6-17.4
				C523.6,302.4,523.8,302.3,524.1,302.3 M524.1,298.2c-0.9,0-1.7,0.2-2.5,0.6c-10.8,5.2-20.4,11.1-29.3,17.8
				c-14,10.4-26.1,22.6-36.2,36.2c-2.2,1.1-10.6,4.2-17.7,6.7c-13.1,3.2-24.2,11.4-30.5,22.4c-5,8.9-6.9,18.7-5,28.5c0,0,0,0-0.1,0
				c-0.6,0.2-1.3,0.4-2,0.6h-0.1c-8.1,2.6-15.2,7.3-20.8,13.3c-0.1,0.1-0.2,0.3-0.4,0.4c-0.3,0.3-0.6,0.7-0.9,1
				c-0.2,0.3-0.5,0.6-0.8,0.9c-0.2,0.2-0.3,0.4-0.5,0.6c-0.4,0.5-0.7,0.9-1.1,1.4l-0.1,0.1c-4.3,6-7.3,13.1-8,20.3
				c0,0.1-0.3,0.1-0.3,0.2l0,0l0.2,0.1c-0.1,0.7,0,1.3,0,1.8c0,0.2,0,0.5,0,0.7v0.2v0.3c0,0.2,0,0.5,0,0.7c0,0.1,0,0.2,0,0.3
				c0,0.5,0,0.9,0,1.4v0.2c0,0.2,0,0.3,0,0.5c0,0.7,0.1,1.3,0.2,1.8v0.1c0,0.1,0,0.2,0,0.3c0.1,0.6,0.2,1.2,0.3,1.9
				c0,0.1,0,0.2,0,0.3c0.1,0.6,0.2,1.3,0.4,2c0,0,0,0.1,0,0.2c0.2,0.9,0.4,1.8,0.7,2.6c2.7,9.1,8.4,17,16.3,23l0,0h0.1
				c0.5,0.4,1,0.7,1.5,1.1c0.2,0.1,0.4,0.3,0.6,0.4c0.3,0.2,0.7,0.4,1,0.7c0.4,0.2,0.8,0.5,1.2,0.7c0.2,0.1,0.3,0.2,0.5,0.3
				c3.6,2.1,7.5,3.7,11.6,4.9c25.7,11.9,64.5,18.3,109.3,18.3c51.1,0,94.1-8,118.1-21.9c16.3-8,25.7-21.9,25.7-38.1
				c0-12.7-5.6-23.7-16.7-32.3c1-4.3,1.2-8,0.6-12h0.1l-0.3-1c-0.2-1.1-0.5-2.1-0.9-3.2l-0.2-0.5c-4.2-15.7-15.8-26.7-32.9-31.4
				l-0.9-3.1c-2.9-9.9-9.5-18.9-18.3-25.6c-9-6.7-19.8-10.3-30.4-10.3c-3.3,0-6.6,0.3-9.8,1c-1.7-0.7-4.6-1.9-5.8-2.4
				c-5.5-1.9-10.3-6.6-12.4-12.2c-1.8-4.7-1.2-10.3,1.4-14.7c1-1.7,1-3.8,0-5.6C528.1,299.4,526.2,298.2,524.1,298.2L524.1,298.2z"
				/>
		</g>
		<g>
			<path fill="#EF8EE8" d="M458.9,364.8c0,0,64.7,11,86.9-18c5.3-2.9,30,6.9,32,12.2C565,368.1,516,404.7,458.9,364.8z"/>
			<path fill="#EF8EE8" d="M407.6,413.4c10,6.7,211.1,11.9,194.3-41.4c10.9,0.6,30.4,16.7,29.3,20.7
				C604.4,466.9,404.6,421.6,407.6,413.4z"/>
			<path fill="#EF8EE8" d="M375.9,469.5c38.1,7.7,242.6,8.7,258.6-48.1c5.5,4.5,17.9,18,17.3,31.7
				C642.1,499,389.1,490.1,375.9,469.5z"/>
			<path fill="#EF8EE8" d="M530.5,332.6c0,0-37.8-1.7-4.8-27.8c15.3-12.2-50.8,16.9-52.6,34.1C499.7,348,509.4,346.2,530.5,332.6z"
				/>
		</g>
	</g>
</g>
</svg>
